<svg width="16" height="16" viewBox="0 0 16 16" fill="none" xmlns="http://www.w3.org/2000/svg">
<rect x="0.5" y="0.5" width="15" height="15" fill="white" stroke="#002E56"/>
<rect width="16" height="16" fill="#00ACEF"/>
<g clip-path="url(#clip0_1222_6053)">
<path d="M7.06334 10.9886C6.98698 11.0654 6.88279 11.1083 6.77456 11.1083C6.66634 11.1083 6.56215 11.0654 6.48578 10.9886L4.17951 8.68198C3.94016 8.44264 3.94016 8.05453 4.17951 7.81564L4.46829 7.52678C4.7077 7.28744 5.09536 7.28744 5.3347 7.52678L6.77456 8.96672L10.6653 5.07593C10.9047 4.83659 11.2927 4.83659 11.5317 5.07593L11.8205 5.36478C12.0598 5.60413 12.0598 5.99216 11.8205 6.23113L7.06334 10.9886Z" fill="white"/>
</g>
<defs>
<clipPath id="clip0_1222_6053">
<rect width="8" height="8" fill="white" transform="translate(4 4)"/>
</clipPath>
</defs>
</svg>
