<svg width="40" height="40" viewBox="0 0 40 40" fill="none" xmlns="http://www.w3.org/2000/svg">
<path d="M10 0C8.625 0 7.5 1.125 7.5 2.5V37.5C7.5 38.875 8.625 40 10 40H35C36.375 40 37.5 38.875 37.5 37.5V10L27.5 0H10Z" fill="#E2E5E7"/>
<path d="M30 10H37.5L27.5 0V7.5C27.5 8.875 28.625 10 30 10Z" fill="#B0B7BD"/>
<path d="M37.5 17.5L30 10H37.5V17.5Z" fill="#CAD1D8"/>
<path d="M32.5 32.5C32.5 33.1875 31.9375 33.75 31.25 33.75H3.75C3.0625 33.75 2.5 33.1875 2.5 32.5V20C2.5 19.3125 3.0625 18.75 3.75 18.75H31.25C31.9375 18.75 32.5 19.3125 32.5 20V32.5Z" fill="#FF6054"/>
<path d="M7.23297 29.9999C6.90297 29.9999 6.54297 29.8186 6.54297 29.3799V23.7036C6.54297 23.3436 6.90297 23.0836 7.23297 23.0836H9.52172C14.0892 23.0836 13.988 29.9999 9.61047 29.9999H7.23297ZM7.86297 24.3024V28.7799H9.52172C12.2205 28.7799 12.3392 24.3024 9.52172 24.3024H7.86297Z" fill="white"/>
<path d="M17.8137 30.1001C15.9649 30.1801 14.0449 28.9501 14.0449 26.5013C14.0449 24.0426 15.9637 22.8338 17.8137 22.8338C19.5624 22.9226 21.3912 24.1326 21.3912 26.5013C21.3912 28.8713 19.5624 30.1001 17.8137 30.1001ZM17.7037 24.1338C16.5837 24.1338 15.3649 24.9238 15.3649 26.5026C15.3649 28.0726 16.5849 28.8726 17.7037 28.8726C18.8537 28.8726 20.0824 28.0726 20.0824 26.5026C20.0824 24.9226 18.8537 24.1338 17.7037 24.1338Z" fill="white"/>
<path d="M22.5684 26.4914C22.5684 24.5627 23.7784 22.9039 26.0771 22.9039C26.9471 22.9039 27.6371 23.1639 28.3659 23.7939C28.6359 24.0427 28.6659 24.4827 28.3959 24.7627C28.1259 25.0014 27.7159 24.9727 27.4759 24.7327C27.0671 24.3027 26.6471 24.1839 26.0771 24.1839C24.5384 24.1839 23.7996 25.2739 23.7996 26.4927C23.7996 27.7327 24.5284 28.8714 26.0771 28.8714C26.6471 28.8714 27.1771 28.6402 27.6371 28.2314C27.9459 27.9914 28.3759 28.1102 28.5559 28.3514C28.7159 28.5714 28.7946 28.9414 28.4459 29.2902C27.7459 29.9414 26.9071 30.0714 26.0759 30.0714C23.6584 30.0714 22.5684 28.4202 22.5684 26.4914Z" fill="white"/>
<path d="M31.25 33.75H7.5V35H31.25C31.9375 35 32.5 34.4375 32.5 33.75V32.5C32.5 33.1875 31.9375 33.75 31.25 33.75Z" fill="#CAD1D8"/>
</svg>
