<svg width="500" height="500" viewBox="0 0 500 500" fill="none" xmlns="http://www.w3.org/2000/svg">
<path d="M93.1796 309.07C93.345 307.037 94.1225 305.102 95.4096 303.52C96.6214 301.93 98.2996 300.759 100.21 300.17C101.84 299.706 103.578 299.794 105.153 300.42C106.728 301.046 108.052 302.174 108.92 303.63C109.654 302.167 110.835 300.976 112.291 300.229C113.747 299.481 115.403 299.215 117.02 299.47C118.986 299.833 120.79 300.802 122.18 302.24C123.648 303.652 124.646 305.481 125.04 307.48C125.511 310.033 125.146 312.67 124 315C122.638 317.37 120.732 319.382 118.44 320.87C114.72 323.42 109.83 326.62 109.83 326.62C109.83 326.62 105.35 323.67 101.37 321.62C98.9121 320.42 96.7789 318.647 95.1496 316.45C93.7154 314.266 93.0244 311.678 93.1796 309.07Z" fill="#EBEBEB"/>
<path d="M371.89 198.62C372.05 196.586 372.828 194.649 374.12 193.07C375.326 191.479 377.002 190.307 378.91 189.72C380.54 189.256 382.278 189.344 383.853 189.97C385.428 190.595 386.752 191.724 387.62 193.18C388.355 191.717 389.535 190.526 390.991 189.779C392.447 189.031 394.103 188.765 395.72 189.02C397.687 189.383 399.491 190.352 400.88 191.79C402.348 193.203 403.35 195.032 403.75 197.03C404.209 199.59 403.834 202.229 402.68 204.56C401.321 206.932 399.415 208.944 397.12 210.43C393.41 212.98 388.51 216.18 388.51 216.18C388.51 216.18 384.04 213.18 380.05 211.18C377.592 209.98 375.459 208.207 373.83 206.01C372.403 203.82 371.723 201.228 371.89 198.62Z" fill="#EBEBEB"/>
<path d="M120.249 284.24C120.348 282.934 120.847 281.691 121.679 280.68C122.456 279.656 123.533 278.901 124.759 278.52C125.413 278.341 126.097 278.296 126.768 278.387C127.44 278.478 128.087 278.704 128.669 279.05C129.357 279.473 129.936 280.052 130.359 280.74C130.831 279.801 131.589 279.037 132.524 278.559C133.459 278.081 134.522 277.913 135.559 278.08C136.822 278.304 137.982 278.924 138.869 279.85C139.814 280.758 140.456 281.935 140.709 283.22C141.011 284.861 140.772 286.556 140.029 288.05C139.157 289.573 137.933 290.866 136.459 291.82C134.069 293.46 130.929 295.52 130.929 295.52C130.929 295.52 128.049 293.62 125.489 292.28C123.91 291.509 122.538 290.37 121.489 288.96C120.581 287.56 120.146 285.906 120.249 284.24Z" fill="#F5F5F5"/>
<path d="M354.78 223.1C354.885 221.796 355.384 220.554 356.21 219.54C356.988 218.52 358.065 217.769 359.29 217.39C360.338 217.101 361.452 217.161 362.462 217.562C363.473 217.963 364.325 218.682 364.89 219.61C365.222 218.956 365.693 218.382 366.27 217.93C366.806 217.513 367.421 217.209 368.078 217.037C368.734 216.865 369.419 216.829 370.09 216.93C371.353 217.162 372.511 217.785 373.4 218.71C374.346 219.617 374.989 220.794 375.24 222.08C375.541 223.721 375.302 225.416 374.56 226.91C373.691 228.436 372.466 229.729 370.99 230.68C368.6 232.31 365.46 234.37 365.46 234.37C365.46 234.37 362.59 232.48 360.02 231.13C358.439 230.362 357.066 229.223 356.02 227.81C355.112 226.414 354.678 224.762 354.78 223.1Z" fill="#F5F5F5"/>
<path d="M405.329 273.65C405.428 272.344 405.927 271.101 406.759 270.09C407.536 269.066 408.613 268.311 409.839 267.93C410.493 267.751 411.177 267.706 411.848 267.797C412.52 267.888 413.167 268.114 413.749 268.46C414.438 268.883 415.016 269.462 415.439 270.15C415.908 269.209 416.666 268.444 417.602 267.965C418.538 267.486 419.602 267.32 420.639 267.49C421.899 267.723 423.056 268.342 423.949 269.26C424.894 270.168 425.536 271.345 425.789 272.63C426.086 274.271 425.847 275.964 425.109 277.46C424.236 278.986 423.008 280.279 421.529 281.23C419.149 282.87 415.999 284.93 415.999 284.93C415.999 284.93 413.129 283.03 410.569 281.69C408.99 280.919 407.618 279.78 406.569 278.37C405.661 276.97 405.226 275.316 405.329 273.65Z" fill="#EBEBEB"/>
<path d="M126.9 325.68C126.967 324.821 127.299 324.003 127.85 323.34C128.352 322.668 129.051 322.168 129.85 321.91C130.281 321.792 130.732 321.762 131.175 321.822C131.618 321.882 132.045 322.031 132.43 322.26C132.88 322.544 133.26 322.927 133.54 323.38C133.76 322.949 134.07 322.57 134.45 322.27C134.804 321.996 135.21 321.798 135.643 321.686C136.076 321.574 136.527 321.552 136.97 321.62C137.802 321.77 138.565 322.179 139.15 322.79C139.781 323.382 140.217 324.153 140.4 325C140.595 326.084 140.437 327.202 139.95 328.19C139.375 329.198 138.565 330.052 137.59 330.68C136.02 331.76 133.94 333.11 133.94 333.11C133.94 333.11 132.05 331.86 130.36 330.98C129.323 330.467 128.422 329.717 127.73 328.79C127.126 327.87 126.835 326.779 126.9 325.68Z" fill="#F5F5F5"/>
<path d="M72.7902 83.72C72.7902 83.72 68.1802 87.72 78.1902 96.93C83.2535 101.746 88.6321 106.219 94.2902 110.32C94.2902 110.32 96.2902 112.58 94.2302 113.81C92.1702 115.04 87.0002 116.06 87.0002 119.15C87.0002 122.24 90.0002 124.26 95.0702 125.06C100.14 125.86 111.07 128.06 112 128.22C112.93 128.38 114.22 129.35 112.94 130.42C111.66 131.49 101.07 136.7 103.85 141.57C106.63 146.44 120.97 146.38 122.54 146.41C124.11 146.44 124.65 146.89 124.82 147.69C124.99 148.49 121.26 149.9 118.31 151.5C115.36 153.1 112.22 155.5 114.05 158.17C115.88 160.84 125.67 164.29 144.52 159.36L153.11 156.51L155.11 147.63C158.17 128.39 153.79 118.99 150.94 117.43C148.09 115.87 146.03 119.22 144.72 122.31C143.41 125.4 142.37 129.25 141.56 129.17C140.75 129.09 140.24 128.58 140.06 127.02C139.88 125.46 138.55 111.18 133.42 108.9C128.29 106.62 124.15 117.66 123.21 119.04C122.27 120.42 121.21 119.26 120.93 118.32C120.65 117.38 117.42 106.69 116.13 101.77C114.84 96.85 112.65 94.03 109.46 94.33C106.27 94.63 105.88 99.88 104.85 102.06C103.82 104.24 101.38 102.47 101.38 102.47C96.7353 97.2345 91.7441 92.3168 86.4402 87.75C76.2702 78.75 72.7002 83.81 72.7002 83.81" fill="#EBEBEB"/>
<path d="M154.26 158.34C146.82 151.66 133.79 139.57 122.55 129.25C111.31 118.93 101.13 109.59 93.7205 102.88L84.9405 94.94C83.9405 94 83.1005 93.28 82.5505 92.77L81.9305 92.21L81.7305 92.01C81.8075 92.0617 81.881 92.1185 81.9505 92.18C82.1005 92.32 82.3205 92.5 82.5905 92.73L85.0005 94.85C87.1005 96.7 90.1205 99.39 93.8405 102.73C101.29 109.41 111.49 118.73 122.73 129.04C133.97 139.35 147 151.48 154.4 158.19" fill="#E0E0E0"/>
<path d="M94.291 118C94.5268 117.972 94.7652 117.972 95.001 118H96.781C98.281 118 100.361 118 102.651 118.14L108.511 118.4L110.291 118.47C110.507 118.45 110.725 118.45 110.941 118.47C110.727 118.515 110.509 118.535 110.291 118.53C109.861 118.53 109.291 118.53 108.501 118.53C107.001 118.53 104.931 118.44 102.641 118.35L96.771 118.12L95.001 118.06C94.7627 118.071 94.524 118.051 94.291 118Z" fill="#E0E0E0"/>
<path d="M111.27 117.7C111.19 117.7 111.1 113.41 111.07 108.13C111.04 102.85 111.07 98.5499 111.16 98.5499C111.25 98.5499 111.32 102.84 111.35 108.12C111.38 113.4 111.34 117.7 111.27 117.7Z" fill="#E0E0E0"/>
<path d="M127.811 134.32C127.84 134.099 127.89 133.881 127.961 133.67C128.101 133.21 128.261 132.67 128.461 131.93C128.881 130.45 129.461 128.41 129.991 126.14C130.521 123.87 130.991 121.8 131.261 120.29C131.411 119.59 131.521 118.99 131.621 118.51C131.647 118.288 131.701 118.069 131.781 117.86C131.789 118.084 131.772 118.309 131.731 118.53C131.671 118.96 131.591 119.53 131.461 120.33C131.211 121.84 130.821 123.93 130.271 126.21C129.721 128.49 129.121 130.52 128.651 131.99C128.411 132.72 128.221 133.3 128.071 133.71C128.009 133.923 127.922 134.128 127.811 134.32Z" fill="#E0E0E0"/>
<path d="M112.52 138C112.702 137.903 112.897 137.833 113.1 137.79L114.72 137.34C116.09 136.96 117.98 136.47 120.08 135.94C122.18 135.41 124.08 134.94 125.46 134.62L127.09 134.25C127.29 134.2 127.494 134.167 127.7 134.15C127.516 134.243 127.321 134.314 127.12 134.36L125.51 134.81C124.14 135.19 122.24 135.68 120.15 136.21C118.06 136.74 116.15 137.21 114.77 137.53L113.13 137.9C112.929 137.951 112.725 137.984 112.52 138Z" fill="#E0E0E0"/>
<path d="M125.26 154.52C125.501 154.412 125.752 154.328 126.01 154.27L128.08 153.68C129.83 153.19 132.25 152.54 134.93 151.83C137.61 151.12 140.04 150.5 141.81 150.06L143.9 149.56C144.152 149.488 144.409 149.438 144.67 149.41C144.432 149.521 144.184 149.608 143.93 149.67L141.86 150.26C140.11 150.74 137.68 151.4 135 152.1C132.32 152.8 129.89 153.43 128.13 153.87L126.04 154.37C125.786 154.448 125.524 154.499 125.26 154.52Z" fill="#E0E0E0"/>
<path d="M144.18 149.4C144.21 149.119 144.267 148.841 144.35 148.57C144.49 148 144.67 147.24 144.9 146.34C145.36 144.45 145.99 141.84 146.6 138.94C147.21 136.04 147.71 133.39 148.05 131.48C148.22 130.56 148.36 129.8 148.46 129.21C148.498 128.929 148.558 128.652 148.64 128.38C148.64 128.665 148.616 128.949 148.57 129.23C148.5 129.77 148.4 130.55 148.25 131.51C147.96 133.44 147.5 136.09 146.88 138.99C146.26 141.89 145.6 144.51 145.09 146.39C144.83 147.33 144.61 148.08 144.45 148.6C144.377 148.872 144.287 149.139 144.18 149.4Z" fill="#E0E0E0"/>
<path d="M355.281 139.38C342.001 127.75 340.701 108.7 343.081 92C343.481 89.2 343.491 86.21 345.081 83.89C346.671 81.57 349.971 80.23 352.361 81.68C354.361 82.89 354.981 85.41 355.931 87.54C357.195 90.3846 359.241 92.8119 361.831 94.54C363.521 95.66 365.671 96.46 367.541 95.68C370.101 94.61 370.741 91.3 371.031 88.5C371.557 83.3 372.084 78.0966 372.611 72.89C372.741 70.0835 373.329 67.3172 374.351 64.7C375.501 62.14 377.681 59.89 380.421 59.43C383.161 58.97 386.271 60.86 386.531 63.65C386.519 64.8155 386.422 65.9785 386.241 67.13C386.148 67.7149 386.233 68.3142 386.487 68.8495C386.74 69.3848 387.149 69.8311 387.661 70.13C388.741 70.58 389.941 69.91 390.861 69.13C394.041 66.62 396.391 63.2 398.611 59.79C400.831 56.38 403.001 52.83 406.001 50C409.001 47.17 412.821 45.17 416.841 45.37C420.861 45.57 424.841 48.5 425.441 52.53C426.041 56.56 423.301 60.32 420.441 63.23C416.227 67.5645 411.411 71.2693 406.141 74.23C405.131 74.6542 404.283 75.39 403.721 76.33C402.911 78.12 404.481 80.16 406.251 80.97C408.251 81.88 410.531 81.91 412.681 82.4C414.831 82.89 417.081 84.11 417.681 86.25C418.521 89.25 415.811 91.96 413.251 93.66C408.129 97.0797 402.456 99.5899 396.481 101.08C394.351 101.61 392.121 102.08 390.311 103.3C388.501 104.52 387.201 107 388.001 109C388.801 111 391.291 112 393.481 111.82C395.671 111.64 397.731 110.69 399.861 110.14C403.861 109.14 408.771 109.9 410.861 113.48C411.488 114.701 411.824 116.051 411.841 117.423C411.859 118.796 411.557 120.154 410.961 121.39C409.742 123.85 408.042 126.04 405.961 127.83C399.094 134.474 390.588 139.177 381.311 141.46C372.091 143.58 363.761 143.53 355.261 139.35" fill="#F5F5F5"/>
<path d="M360.76 129.31C364.538 120.457 368.819 111.826 373.58 103.46C374.84 101.23 376.07 99.03 377.29 96.86C378.51 94.69 379.73 92.55 381.04 90.52C383.578 86.637 386.325 82.8948 389.27 79.31C392.06 75.87 394.83 72.71 397.44 69.77C400.05 66.83 402.56 64.15 404.94 61.77C408.663 58.0426 412.676 54.6152 416.94 51.52C418.45 50.42 419.65 49.61 420.47 49.07L421.41 48.46C421.512 48.3848 421.623 48.3211 421.74 48.27C421.646 48.3578 421.546 48.438 421.44 48.51L420.53 49.16C419.73 49.72 418.53 50.56 417.06 51.68C412.842 54.8309 408.865 58.2904 405.16 62.03C402.81 64.4 400.33 67.09 397.73 70.03C395.13 72.97 392.38 76.15 389.61 79.59C386.679 83.1605 383.951 86.8931 381.44 90.77C380.13 92.77 378.93 94.91 377.71 97.08L374 103.68C369.246 112.028 364.963 120.634 361.17 129.46" fill="#E0E0E0"/>
<path d="M381.19 90.5199C381.105 90.1185 381.058 89.71 381.05 89.2999C380.98 88.5099 380.93 87.3699 380.88 85.9599C380.79 83.1399 380.79 79.2399 380.81 74.9599C380.83 70.6799 380.81 66.7699 380.64 63.9599C380.57 62.5499 380.51 61.4099 380.45 60.6299C380.4 60.2214 380.4 59.8084 380.45 59.3999C380.561 59.7953 380.635 60.2005 380.67 60.6099C380.79 61.3899 380.91 62.5299 381.02 63.9299C381.25 66.7499 381.36 70.6499 381.34 74.9299C381.32 79.2099 381.29 83.0099 381.27 85.9299V89.2699C381.295 89.6883 381.268 90.1082 381.19 90.5199Z" fill="#E0E0E0"/>
<path d="M417.79 87.68C417.308 87.7205 416.823 87.7205 416.34 87.68C415.41 87.68 414.06 87.68 412.4 87.68C409.08 87.68 404.49 87.84 399.4 88.24C394.31 88.64 389.78 89.24 386.49 89.72C384.84 89.96 383.49 90.19 382.6 90.34C382.127 90.447 381.645 90.5139 381.16 90.54C381.612 90.3593 382.081 90.2252 382.56 90.14C383.47 89.93 384.79 89.64 386.43 89.35C389.72 88.76 394.29 88.13 399.36 87.72C403.684 87.3644 408.023 87.2275 412.36 87.31C414.02 87.31 415.36 87.43 416.3 87.51C416.801 87.517 417.3 87.5739 417.79 87.68Z" fill="#E0E0E0"/>
<path d="M361.27 128.69C361.182 128.547 361.115 128.392 361.07 128.23L360.6 126.87C360.19 125.68 359.6 123.95 359.01 121.8C357.72 117.5 356.13 111.51 354.46 104.88C352.79 98.2499 351.26 92.2499 350.06 87.9299L348.63 82.8199C348.48 82.2699 348.35 81.8199 348.25 81.4299C348.194 81.2688 348.16 81.1005 348.15 80.9299C348.229 81.0812 348.296 81.2384 348.35 81.3999C348.47 81.7699 348.63 82.2199 348.82 82.7599C349.23 83.9499 349.77 85.6799 350.41 87.8299C351.7 92.1199 353.29 98.1099 354.96 104.75C356.63 111.39 358.16 117.38 359.36 121.75L360.79 126.86C360.94 127.41 361.07 127.86 361.17 128.25C361.222 128.392 361.255 128.54 361.27 128.69Z" fill="#E0E0E0"/>
<path d="M410.59 118.47C410.436 118.545 410.27 118.593 410.1 118.61L408.67 118.93L403.38 120.03C398.92 120.97 392.78 122.32 385.99 123.84C379.2 125.36 372.99 126.65 368.55 127.49C366.31 127.92 364.49 128.24 363.23 128.49L361.78 128.7C361.611 128.729 361.438 128.729 361.27 128.7C361.429 128.64 361.593 128.594 361.76 128.56L363.2 128.25L368.48 127.14C372.94 126.21 379.09 124.85 385.88 123.34C392.67 121.83 398.83 120.52 403.31 119.68C405.55 119.26 407.37 118.94 408.63 118.74L410.08 118.52C410.247 118.481 410.418 118.465 410.59 118.47Z" fill="#E0E0E0"/>
<path d="M473.371 465.82C473.371 465.97 373.371 466.09 250.011 466.09C126.651 466.09 26.6309 466 26.6309 465.82C26.6309 465.64 126.631 465.56 250.011 465.56C373.391 465.56 473.371 465.68 473.371 465.82Z" fill="#263238"/>
<path d="M315.701 223.46C316.248 214.2 316.801 204.94 317.361 195.68C317.431 194.56 317.601 193.27 318.561 192.68C319.029 192.496 319.532 192.418 320.034 192.452C320.535 192.487 321.023 192.633 321.461 192.88C337.881 199.49 349.931 217.81 351.371 235.44" fill="#ABABAB"/>
<g opacity="0.3">
<path opacity="0.3" d="M321.28 202.28C325.127 204.8 328.338 208.176 330.662 212.144C332.987 216.111 334.362 220.563 334.68 225.15C334.863 226.258 334.627 227.395 334.02 228.34C333.709 228.679 333.33 228.949 332.908 229.133C332.486 229.318 332.031 229.412 331.57 229.41C330.648 229.4 329.732 229.259 328.85 228.99C326.64 228.42 324.31 227.8 322.67 226.2C321.171 224.611 320.313 222.524 320.26 220.34C320.221 218.175 320.442 216.012 320.92 213.9L323.72 218.68L320.72 203.2C320.673 203.064 320.656 202.92 320.67 202.776C320.684 202.633 320.728 202.494 320.8 202.37C320.97 202.15 321.45 202.23 321.42 202.51" fill="white"/>
</g>
<path d="M220.512 243.18C211.943 233.006 207.015 220.262 206.512 206.97L215.662 211.28L213.372 208.49C226.724 209.603 239.114 215.886 247.902 226" fill="#ABABAB"/>
<g opacity="0.3">
<path opacity="0.3" d="M225.58 239.14C221.987 236.528 218.967 233.207 216.709 229.382C214.45 225.556 213.001 221.308 212.45 216.9C212.38 216.3 212.45 215.51 213.01 215.31C213.219 215.273 213.433 215.284 213.638 215.341C213.842 215.398 214.031 215.5 214.19 215.64L230.7 226.43C229.983 225.401 229.536 224.207 229.4 222.96L236.4 228.09C236.666 228.238 236.9 228.437 237.089 228.675C237.278 228.914 237.417 229.187 237.5 229.48C237.504 229.809 237.428 230.134 237.281 230.428C237.133 230.722 236.917 230.977 236.65 231.17C235.484 232.223 234.065 232.955 232.531 233.295C230.997 233.635 229.402 233.571 227.9 233.11L230.9 235.72C230.007 236.297 229.006 236.688 227.957 236.868C226.909 237.049 225.835 237.015 224.8 236.77C224.699 237.263 224.748 237.775 224.94 238.241C225.133 238.706 225.46 239.103 225.88 239.38" fill="white"/>
</g>
<path d="M407.001 330.45C407.001 330.45 419.801 343.68 425.621 342.58C425.621 342.58 405.401 321.07 396.901 301.22C392.841 291.833 388.004 282.802 382.441 274.22C386.271 267.62 389.681 260.15 391.241 252.6C386.942 257.586 382.041 262.02 376.651 265.8C376.211 265.18 375.761 264.57 375.301 263.95C379.824 259.858 382.839 254.363 383.861 248.35L363.651 247.48C364.284 246.569 364.855 245.617 365.361 244.63C355.433 236.097 344.317 229.053 332.361 223.72C309.111 210.49 257.361 206.12 232.161 227.63C209.591 240.79 203.541 257.63 185.761 261.8L175.221 260.65C175.221 260.65 171.121 282.65 184.591 292.48L174.591 290.16C174.591 290.16 176.431 298.92 186.271 308.58L180.131 307.83C180.131 307.83 182.791 321.61 191.291 324.92C191.291 324.92 178.011 326.58 174.291 321.61C174.291 321.61 169.871 342.21 189.981 349.98C189.981 349.98 129.721 357.04 146.661 430.81C150.661 448.04 174.411 460.44 201.761 466.43L398.761 465.66C410.761 461.74 425.081 421.98 425.611 405.99C426.141 390 418.181 359.11 418.181 359.11L425.641 369.04L407.001 330.45Z" fill="#ABABAB"/>
<path d="M181.84 361.19C170.53 360.51 159.42 369.3 157.49 380.47C164.849 375.589 173.251 372.506 182.02 371.47C178.566 374.646 176.16 378.797 175.118 383.373C174.077 387.948 174.451 392.732 176.19 397.09C177.648 393.195 179.882 389.636 182.756 386.63C185.63 383.623 189.084 381.232 192.91 379.6C190.297 382.752 188.541 386.525 187.812 390.554C187.084 394.583 187.407 398.732 188.75 402.6" fill="#ABABAB"/>
<path d="M188.75 402.62C188.682 402.489 188.629 402.352 188.59 402.21C188.5 401.94 188.34 401.54 188.18 401.01C187.74 399.436 187.465 397.821 187.36 396.19C187.206 393.612 187.466 391.026 188.13 388.53C188.999 385.228 190.579 382.157 192.76 379.53L192.99 379.84C189.201 381.477 185.781 383.86 182.934 386.848C180.087 389.836 177.872 393.367 176.42 397.23L176.2 397.83L175.96 397.24C174.751 394.197 174.192 390.935 174.317 387.663C174.443 384.391 175.251 381.181 176.69 378.24C177.957 375.642 179.708 373.311 181.85 371.37L182.05 371.82C173.323 372.85 164.955 375.897 157.61 380.72L157.17 381.01L157.27 380.49C157.714 378.077 158.559 375.755 159.77 373.62C160.843 371.686 162.19 369.918 163.77 368.37C166.294 365.816 169.345 363.843 172.71 362.59C174.862 361.784 177.125 361.312 179.42 361.19C180.22 361.19 180.83 361.19 181.23 361.19H181.7H181.85H181.7H181.23C180.82 361.19 180.23 361.19 179.43 361.19C177.158 361.364 174.924 361.873 172.8 362.7C169.492 363.973 166.5 365.948 164.03 368.49C162.491 370.024 161.181 371.772 160.14 373.68C158.967 375.781 158.149 378.062 157.72 380.43L157.37 380.2C164.765 375.319 173.2 372.237 182 371.2L182.81 371.11L182.2 371.65C180.124 373.55 178.427 375.827 177.2 378.36C175.784 381.24 174.987 384.385 174.86 387.592C174.732 390.799 175.277 393.997 176.46 396.98H176C177.584 392.792 180.053 388.995 183.24 385.85C186.013 383.106 189.285 380.917 192.88 379.4L193.64 379.08L193.11 379.71C190.945 382.287 189.366 385.303 188.48 388.55C187.804 391.014 187.517 393.568 187.63 396.12C187.708 397.737 187.949 399.342 188.35 400.91C188.48 401.45 188.62 401.86 188.69 402.13C188.726 402.291 188.746 402.455 188.75 402.62Z" fill="#263238"/>
<path d="M388.33 392.22C394.435 390.928 400.799 391.779 406.351 394.63C411.902 397.48 416.302 402.156 418.81 407.87" fill="#ABABAB"/>
<path d="M418.81 407.87C418.71 407.92 417.94 405.97 415.99 403.26C413.449 399.727 410.105 396.848 406.233 394.861C402.361 392.874 398.072 391.835 393.72 391.83C390.38 391.83 388.34 392.33 388.33 392.22C388.786 392.054 389.259 391.937 389.74 391.87C391.059 391.621 392.398 391.488 393.74 391.47C398.17 391.37 402.555 392.377 406.497 394.399C410.44 396.421 413.816 399.394 416.32 403.05C417.081 404.146 417.75 405.303 418.32 406.51C418.535 406.943 418.699 407.4 418.81 407.87Z" fill="#263238"/>
<g opacity="0.3">
<path opacity="0.3" d="M318.872 408.84C311.612 410 302.372 415.49 299.002 422C298.282 423.39 298.942 423.58 299.002 425.14C299.003 425.926 299.224 426.697 299.642 427.363C300.059 428.03 300.655 428.566 301.362 428.91C301.72 429.056 302.105 429.124 302.491 429.111C302.878 429.099 303.257 429.005 303.605 428.836C303.953 428.667 304.262 428.427 304.511 428.132C304.76 427.836 304.944 427.491 305.052 427.12C304.185 432.448 305.348 437.908 308.312 442.42C310.354 441.269 312 439.525 313.032 437.42C312.842 441.327 313.454 445.231 314.829 448.893C316.205 452.554 318.316 455.895 321.032 458.71L317.492 444.9C316.222 439.9 314.992 435.65 315.332 430.52C315.692 425.04 318.952 420.42 321.482 415.88C318.002 417.39 313.972 424.23 310.542 428.4C310.336 424.771 310.958 421.143 312.359 417.789C313.76 414.435 315.905 411.444 318.632 409.04" fill="black"/>
</g>
<path d="M317.51 445.06C317.395 444.874 317.302 444.676 317.23 444.47C317.08 444.07 316.79 443.47 316.55 442.7C315.8 440.455 315.346 438.122 315.2 435.76C314.963 432.163 315.387 428.554 316.45 425.11C317.758 420.733 320.093 416.732 323.26 413.44L323.61 413.8C320.687 416.42 317.913 419.201 315.3 422.13C313.612 424.056 312.121 426.147 310.85 428.37L310.46 429.06L310.37 428.28C309.928 424.156 310.677 419.991 312.53 416.28C314.064 413.135 316.343 410.412 319.17 408.35L319.36 408.69C317.373 409.43 315.551 410.555 314 412C312.83 413.085 311.82 414.331 311 415.7C310.48 416.572 310.032 417.485 309.66 418.43C309.553 418.771 309.427 419.105 309.28 419.43C309.269 419.344 309.269 419.256 309.28 419.17C309.33 418.99 309.39 418.73 309.5 418.4C309.829 417.424 310.255 416.482 310.77 415.59C311.58 414.179 312.591 412.892 313.77 411.77C315.34 410.279 317.188 409.114 319.21 408.34L320.55 407.83L319.39 408.68C316.663 410.735 314.471 413.418 313 416.5C311.219 420.134 310.502 424.196 310.93 428.22L310.45 428.12C311.739 425.868 313.246 423.747 314.95 421.79C317.578 418.845 320.372 416.054 323.32 413.43L323.67 413.79C320.549 417.019 318.233 420.939 316.91 425.23C315.836 428.625 315.382 432.185 315.57 435.74C315.686 438.083 316.085 440.403 316.76 442.65C316.98 443.44 317.24 444.02 317.36 444.43C317.423 444.637 317.473 444.847 317.51 445.06Z" fill="#263238"/>
<path d="M198.861 444C202.789 448.358 207.958 451.408 213.671 452.74C213.982 452.864 214.319 452.905 214.651 452.86C214.982 452.814 215.296 452.683 215.561 452.48C216.141 451.84 215.661 450.83 215.181 450.12L208.831 440.74C213.352 444.313 218.712 446.668 224.401 447.58C225.351 447.73 226.521 447.73 227.001 446.91C227.138 446.549 227.189 446.161 227.149 445.778C227.109 445.394 226.98 445.025 226.771 444.7C225.771 442.56 224.771 440.45 223.591 438.39" fill="#ABABAB"/>
<path d="M223.591 438.35C223.713 438.504 223.817 438.672 223.901 438.85L224.701 440.35C225.061 441.02 225.471 441.82 225.951 442.73C226.204 443.197 226.464 443.697 226.731 444.23C227.064 444.791 227.278 445.413 227.361 446.06C227.389 446.447 227.275 446.831 227.041 447.14C226.784 447.446 226.432 447.657 226.041 447.74C225.268 447.858 224.479 447.821 223.721 447.63C222.068 447.346 220.44 446.935 218.851 446.4C215.169 445.171 211.729 443.314 208.681 440.91L209.061 440.56L210.161 442.19L213.701 447.43L215.391 449.92C215.691 450.347 215.911 450.825 216.041 451.33C216.117 451.608 216.103 451.903 216.001 452.173C215.898 452.443 215.713 452.673 215.471 452.83C215.001 453.068 214.46 453.125 213.951 452.99C213.481 452.91 213.061 452.77 212.621 452.67C211.751 452.42 210.921 452.16 210.141 451.86C208.681 451.311 207.27 450.642 205.921 449.86C203.965 448.736 202.155 447.376 200.531 445.81C199.961 445.25 199.531 444.81 199.271 444.48C199.12 444.324 198.986 444.154 198.871 443.97C199.046 444.095 199.207 444.24 199.351 444.4C199.641 444.7 200.081 445.13 200.671 445.66C202.33 447.152 204.152 448.454 206.101 449.54C207.444 450.291 208.845 450.933 210.291 451.46C211.071 451.75 211.891 452 212.741 452.24C213.591 452.48 214.541 452.81 215.221 452.43C215.38 452.324 215.499 452.168 215.56 451.988C215.622 451.807 215.622 451.611 215.561 451.43C215.443 450.99 215.243 450.576 214.971 450.21C214.421 449.4 213.861 448.57 213.281 447.73C212.134 446.03 210.951 444.283 209.731 442.49L208.631 440.86L207.631 439.46L209.001 440.5C213.314 443.912 218.394 446.218 223.801 447.22C224.505 447.408 225.239 447.455 225.961 447.36C226.266 447.32 226.544 447.165 226.739 446.928C226.934 446.69 227.031 446.387 227.011 446.08C226.942 445.475 226.751 444.89 226.451 444.36C226.191 443.83 225.941 443.36 225.711 442.85L224.541 440.44L223.821 438.9C223.72 438.728 223.642 438.543 223.591 438.35Z" fill="#263238"/>
<g opacity="0.3">
<path opacity="0.3" d="M223.531 381.78C225.741 385.51 228.976 388.526 232.851 390.47C232.63 388.416 231.777 386.48 230.411 384.93C234.631 388.949 239.631 392.06 245.101 394.07C242.772 395.107 240.229 395.576 237.683 395.438C235.137 395.3 232.661 394.559 230.457 393.275C228.254 391.992 226.387 390.203 225.011 388.057C223.635 385.911 222.788 383.468 222.541 380.93" fill="black"/>
</g>
<g opacity="0.3">
<path opacity="0.3" d="M196.771 316.61C204.711 331.88 230.391 339.42 250.531 339.75C256.751 339.84 265.531 344.44 271.691 343.84C285.521 342.51 296.751 335.06 310.611 333.84C319.241 333.11 327.921 332.84 336.451 331.39C344.981 329.94 344.591 328.93 351.371 323.54C358.151 318.15 365.481 312.81 365.371 304.15C352.631 319.75 340.041 324.58 320.431 329.15C300.821 333.72 280.431 333.62 260.321 332.69C238.191 331.69 214.961 329.25 196.771 316.6" fill="black"/>
</g>
<path d="M265.091 199.49C265.181 199.49 265.261 200.62 265.561 202.41C265.958 204.74 266.594 207.022 267.461 209.22C268.348 211.414 269.458 213.512 270.771 215.48C271.37 216.264 271.927 217.078 272.441 217.92C272.441 217.92 272.211 217.75 271.861 217.37C271.363 216.84 270.899 216.279 270.471 215.69C269.049 213.755 267.876 211.649 266.981 209.42C266.085 207.175 265.486 204.821 265.201 202.42C265.107 201.7 265.054 200.976 265.041 200.25C265.021 199.996 265.038 199.74 265.091 199.49Z" fill="#ABABAB"/>
<path d="M271.62 197C271.71 197 271.31 198 270.92 199.67C270.427 201.826 270.262 204.045 270.43 206.25C270.611 208.452 271.126 210.614 271.96 212.66C272.6 214.24 273.15 215.15 273.07 215.19C272.99 215.23 272.88 215 272.61 214.6C272.234 214.028 271.9 213.43 271.61 212.81C269.691 208.667 269.318 203.974 270.56 199.58C270.738 198.923 270.969 198.281 271.25 197.66C271.46 197.18 271.59 196.94 271.62 197Z" fill="#ABABAB"/>
<path d="M149.23 363.2C149.349 363.056 149.483 362.925 149.63 362.81C149.9 362.57 150.29 362.19 150.84 361.81C152.377 360.589 154.001 359.483 155.7 358.5C161.345 355.302 167.487 353.077 173.87 351.92C180.235 350.761 186.683 350.119 193.15 350C195.63 349.94 197.63 349.92 199.01 349.92H200.61C200.797 349.904 200.984 349.904 201.17 349.92C200.987 349.966 200.799 349.989 200.61 349.99L199.02 350.07L193.16 350.32C186.724 350.525 180.311 351.194 173.97 352.32C167.641 353.476 161.535 355.63 155.88 358.7C154.183 359.655 152.543 360.71 150.97 361.86C149.86 362.75 149.26 363.23 149.23 363.2Z" fill="#ABABAB"/>
<path d="M292.581 201.34C292.581 201.43 290.871 200.86 288.091 200.18C286.475 199.782 284.816 199.584 283.151 199.59C281.129 199.604 279.148 200.167 277.421 201.22C276.544 201.766 275.78 202.476 275.171 203.31C274.624 204.099 274.239 204.99 274.041 205.93C273.755 207.559 273.827 209.231 274.251 210.83C274.941 213.59 275.681 215.23 275.581 215.27C275.354 214.916 275.17 214.537 275.031 214.14C274.578 213.094 274.197 212.018 273.891 210.92C273.404 209.272 273.294 207.536 273.571 205.84C273.767 204.829 274.169 203.869 274.751 203.02C275.396 202.123 276.207 201.359 277.141 200.77C278.95 199.674 281.027 199.1 283.141 199.11C284.833 199.126 286.514 199.369 288.141 199.83C289.531 200.2 290.631 200.58 291.391 200.83C291.804 200.96 292.203 201.13 292.581 201.34Z" fill="#ABABAB"/>
<path d="M442.611 451.94C441.531 444.76 438.011 437.69 432.001 433.6C425.991 429.51 417.341 429.03 411.621 433.52L387.881 465.62L438.421 465.83C441.241 463.22 443.181 455.74 442.611 451.94Z" fill="#ABABAB"/>
<g opacity="0.3">
<path opacity="0.3" d="M409 465.16C413.27 463.38 416.42 459.55 418.36 455.35C420.3 451.15 421.15 446.55 422 442C422.7 438.23 423.36 434.16 421.72 430.68C421.329 430.659 420.939 430.74 420.588 430.915C420.237 431.091 419.938 431.354 419.72 431.68C419.282 432.343 418.96 433.078 418.77 433.85C414.86 446.19 408.83 456.85 398.98 465.2" fill="black"/>
</g>
<g opacity="0.3">
<path opacity="0.3" d="M258.881 214.41C263.881 228.82 264.511 244.41 263.971 259.6C263.701 267.18 263.131 274.84 260.761 282.05C258.391 289.26 254.041 296.05 247.581 300.05C241.481 303.82 233.941 304.81 226.821 303.87C219.701 302.93 212.941 300.2 206.531 296.98C199.211 293.3 192.161 288.9 186.481 282.98C180.801 277.06 176.141 268.79 175.201 260.66L185.741 261.81C185.741 261.81 193.851 260.95 206.461 248.75C220.241 235.43 222.751 233.8 233.071 226.86C241.075 221.567 249.757 217.379 258.881 214.41Z" fill="white"/>
</g>
<g opacity="0.3">
<path opacity="0.3" d="M302.441 303.23C304.435 302.106 306.741 301.665 309.009 301.973C311.276 302.282 313.381 303.324 315.001 304.94C316.605 302.843 318.776 301.249 321.256 300.345C323.737 299.442 326.424 299.266 329.001 299.84C325.876 301.069 322.966 302.787 320.381 304.93C317.911 307.2 316.131 310.46 316.441 313.8C313.351 310.472 309.798 307.606 305.891 305.29C304.271 304.29 302.141 303.48 300.621 304.6" fill="black"/>
</g>
<path d="M336.881 415.89C331.076 420.057 326.797 426.012 324.7 432.843C322.603 439.674 322.804 447.004 325.271 453.71" fill="#ABABAB"/>
<path d="M325.271 453.71C325.189 453.59 325.125 453.459 325.081 453.32C324.981 453.05 324.811 452.67 324.641 452.15C324.154 450.705 323.783 449.224 323.531 447.72C322.658 442.731 322.978 437.606 324.464 432.764C325.95 427.922 328.56 423.5 332.081 419.86C333.134 418.768 334.274 417.765 335.491 416.86C335.911 416.53 336.271 416.3 336.491 416.14C336.711 415.98 336.861 415.91 336.871 415.93C336.468 416.316 336.044 416.68 335.601 417.02C334.45 417.994 333.361 419.039 332.341 420.15C328.938 423.804 326.408 428.183 324.943 432.957C323.477 437.731 323.114 442.776 323.881 447.71C324.104 449.202 324.421 450.678 324.831 452.13C325.014 452.646 325.161 453.174 325.271 453.71Z" fill="#263238"/>
<path d="M356.77 381.27C360.86 378.13 366.14 374.83 370.77 377.04C372.052 377.743 373.152 378.737 373.981 379.943C374.809 381.148 375.343 382.531 375.54 383.98C375.9 386.882 375.717 389.825 375 392.66C371.642 409.201 364.346 424.688 353.73 437.81C349.88 442.57 344.4 447.39 338.42 446.08C332.84 444.85 329.67 438.47 330 432.76C330.33 427.05 333.21 421.86 335.88 416.76C342.22 404.76 348.38 391.6 356.74 381.23" fill="#ABABAB"/>
<path d="M356.77 381.27C356.691 381.401 356.604 381.528 356.51 381.65L355.71 382.72C355 383.66 353.97 385.07 352.71 386.92C349.225 392.194 346.034 397.655 343.15 403.28L337.15 414.92C335.03 419.12 332.36 423.46 330.97 428.54C330.223 431.12 330.083 433.837 330.56 436.48C331.063 439.231 332.425 441.752 334.45 443.68C335.5 444.625 336.757 445.311 338.12 445.68C339.517 446.041 340.977 446.079 342.39 445.79C345.282 445.044 347.921 443.535 350.03 441.42C352.188 439.332 354.153 437.052 355.9 434.61C357.7 432.25 359.32 429.81 360.9 427.39C366.501 418.448 370.737 408.721 373.47 398.53C374.07 396.263 374.584 394.057 375.01 391.91C375.463 389.876 375.667 387.794 375.62 385.71C375.5 381.78 373.44 378.21 370.51 377.02C369.164 376.451 367.683 376.274 366.24 376.51C365.024 376.715 363.84 377.082 362.72 377.6C361.17 378.335 359.688 379.205 358.29 380.2L357.19 380.98C356.95 381.15 356.81 381.23 356.81 381.23L357.16 380.94C357.4 380.74 357.75 380.47 358.23 380.12C359.606 379.08 361.08 378.176 362.63 377.42C363.76 376.869 364.962 376.482 366.2 376.27C367.805 375.974 369.462 376.192 370.936 376.892C372.41 377.592 373.626 378.739 374.41 380.17C375.377 381.854 375.916 383.749 375.98 385.69C376.049 387.802 375.857 389.915 375.41 391.98C374.98 394.14 374.48 396.36 373.89 398.64C371.177 408.879 366.947 418.654 361.34 427.64C359.78 430.08 358.15 432.52 356.34 434.9C354.575 437.37 352.59 439.676 350.41 441.79C348.233 443.97 345.507 445.522 342.52 446.28C341.03 446.583 339.49 446.538 338.02 446.15C336.575 445.751 335.245 445.014 334.14 444C332.046 441.995 330.645 439.375 330.14 436.52C329.648 433.804 329.795 431.01 330.57 428.36C332 423.18 334.7 418.84 336.82 414.66C338.94 410.48 341.04 406.6 342.9 403.05C345.816 397.43 349.062 391.987 352.62 386.75C353.9 384.91 354.96 383.52 355.69 382.6L356.54 381.6C356.612 381.487 356.689 381.377 356.77 381.27Z" fill="#263238"/>
<g opacity="0.3">
<path opacity="0.3" d="M357.272 395.53V395.58C358.272 392.76 360.402 391.95 362.692 391.12C364.982 390.29 367.752 390.38 369.592 391.98C371.712 393.82 371.982 397.06 371.412 399.81C371.277 400.782 370.879 401.698 370.262 402.46C369.942 402.83 369.513 403.089 369.036 403.199C368.56 403.308 368.061 403.263 367.612 403.07C366.612 402.52 366.302 401.07 365.242 400.63C364.182 400.19 362.782 401.18 361.502 401.5C360.626 401.669 359.719 401.531 358.933 401.108C358.148 400.685 357.533 400.004 357.192 399.18C356.962 398.597 356.851 397.974 356.864 397.347C356.878 396.72 357.017 396.103 357.272 395.53Z" fill="black"/>
</g>
<g opacity="0.3">
<path opacity="0.3" d="M361.632 381.45C362.145 381.679 362.574 382.064 362.856 382.551C363.138 383.037 363.259 383.601 363.202 384.16C363.152 385.415 362.877 386.652 362.392 387.81C362.042 388.81 361.452 389.92 360.392 389.96C360.094 389.952 359.804 389.868 359.548 389.715C359.292 389.563 359.08 389.348 358.931 389.09C358.645 388.568 358.484 387.986 358.461 387.39C358.362 386.027 358.574 384.659 359.081 383.39C359.3 382.729 359.711 382.147 360.262 381.72C360.539 381.51 360.878 381.396 361.227 381.396C361.575 381.396 361.914 381.51 362.192 381.72" fill="black"/>
</g>
<g opacity="0.3">
<path opacity="0.3" d="M373.611 383.91C374.125 384.139 374.554 384.524 374.835 385.011C375.117 385.497 375.238 386.061 375.181 386.62C375.131 387.875 374.856 389.111 374.371 390.27C374.021 391.27 373.421 392.38 372.371 392.42C372.074 392.413 371.783 392.329 371.527 392.177C371.271 392.024 371.059 391.808 370.911 391.55C370.615 391.031 370.454 390.447 370.441 389.85C370.344 388.488 370.552 387.121 371.051 385.85C371.274 385.188 371.688 384.607 372.241 384.18C372.519 383.968 372.858 383.854 373.206 383.854C373.555 383.854 373.894 383.968 374.171 384.18" fill="black"/>
</g>
<g opacity="0.3">
<path opacity="0.3" d="M368.551 379.33C369.063 379.564 369.489 379.952 369.77 380.439C370.052 380.927 370.174 381.49 370.121 382.05C370.066 383.301 369.792 384.533 369.311 385.69C368.951 386.69 368.361 387.81 367.311 387.84C367.013 387.833 366.723 387.749 366.467 387.597C366.211 387.444 365.999 387.228 365.851 386.97C365.563 386.452 365.405 385.872 365.391 385.28C365.283 383.917 365.492 382.548 366.001 381.28C366.219 380.615 366.634 380.033 367.191 379.61C367.467 379.401 367.804 379.287 368.151 379.287C368.498 379.287 368.835 379.401 369.111 379.61" fill="black"/>
</g>
<g opacity="0.3">
<path opacity="0.3" d="M364.671 420.21C363.873 426.261 362.227 432.169 359.781 437.76C357.315 443.374 353.544 448.318 348.781 452.18C346.581 453.9 344.001 455.38 341.211 455.45C337.261 455.55 333.661 452.72 331.881 449.19C330.101 445.66 329.881 441.56 330.061 437.62C331.971 440.81 334.121 444.21 337.581 445.62C339.11 446.133 340.732 446.309 342.336 446.136C343.939 445.963 345.486 445.446 346.871 444.62C349.631 442.948 352.045 440.762 353.981 438.18C358.266 432.95 361.788 427.139 364.441 420.92" fill="black"/>
</g>
<path d="M140.701 382.07C135.781 380.56 129.701 379.31 126.081 383.01C125.132 384.123 124.457 385.442 124.11 386.863C123.763 388.283 123.753 389.765 124.081 391.19C124.756 394.037 125.957 396.733 127.621 399.14C136.559 413.456 148.811 425.413 163.341 434C168.611 437.1 175.431 439.7 180.571 436.37C185.381 433.27 186.101 426.18 183.801 420.95C181.501 415.72 177.001 411.83 172.691 408C162.551 399 152.171 388.82 140.691 382" fill="#ABABAB"/>
<path d="M140.7 382.07C140.7 382.07 140.84 382.13 141.11 382.28L142.26 382.96C143.26 383.57 144.75 384.5 146.6 385.77C151.766 389.433 156.711 393.396 161.41 397.64L171.18 406.38C174.63 409.55 178.68 412.67 181.83 417.02C183.487 419.229 184.607 421.793 185.1 424.51C185.614 427.368 185.211 430.315 183.95 432.93C183.266 434.262 182.28 435.416 181.07 436.3C179.827 437.183 178.397 437.764 176.89 438C173.815 438.346 170.704 437.848 167.89 436.56C165.1 435.343 162.423 433.881 159.89 432.19C157.37 430.59 154.98 428.87 152.67 427.14C148.287 423.752 144.175 420.027 140.37 416C136.91 412.353 133.715 408.463 130.81 404.36C129.46 402.43 128.21 400.52 127.06 398.65C125.915 396.873 124.991 394.962 124.31 392.96C123.692 391.12 123.534 389.156 123.85 387.24C124.084 385.625 124.82 384.125 125.955 382.953C127.089 381.781 128.564 380.996 130.17 380.71C131.407 380.481 132.668 380.42 133.92 380.53C135.638 380.702 137.336 381.037 138.99 381.53C139.56 381.69 139.99 381.82 140.27 381.92L140.7 382.08L140.26 381.97L138.96 381.63C137.302 381.189 135.609 380.891 133.9 380.74C132.669 380.65 131.432 380.724 130.22 380.96C128.783 381.251 127.458 381.945 126.4 382.96C124.07 385.11 123.4 389.17 124.66 392.89C125.345 394.857 126.265 396.734 127.4 398.48C128.56 400.34 129.814 402.23 131.16 404.15C137.294 412.735 144.671 420.359 153.05 426.77C155.35 428.5 157.73 430.21 160.24 431.77C162.735 433.445 165.375 434.891 168.13 436.09C170.843 437.338 173.842 437.829 176.81 437.51C178.251 437.291 179.62 436.74 180.81 435.9C181.958 435.068 182.89 433.975 183.53 432.71C184.75 430.196 185.142 427.361 184.65 424.61C184.177 421.966 183.091 419.47 181.48 417.32C178.4 413.04 174.38 409.91 170.93 406.72L161.21 397.93C156.54 393.661 151.635 389.655 146.52 385.93C144.7 384.63 143.24 383.68 142.25 383.04L141.12 382.32L140.7 382.07Z" fill="#263238"/>
<g opacity="0.3">
<path opacity="0.3" d="M145.241 395.59C143.311 393.3 141.041 393.28 138.601 393.31C136.161 393.34 133.601 394.4 132.441 396.53C131.101 399.01 131.981 402.13 133.441 404.53C133.899 405.394 134.593 406.112 135.441 406.6C135.867 406.839 136.359 406.934 136.844 406.871C137.329 406.808 137.78 406.59 138.131 406.25C138.881 405.38 138.671 403.93 139.491 403.13C140.311 402.33 142.001 402.78 143.301 402.64C144.18 402.491 144.981 402.044 145.57 401.374C146.158 400.704 146.497 399.851 146.531 398.96C146.558 397.711 146.095 396.502 145.241 395.59Z" fill="black"/>
</g>
<g opacity="0.3">
<path opacity="0.3" d="M136.211 383.93C135.81 384.327 135.544 384.84 135.451 385.396C135.358 385.952 135.442 386.524 135.691 387.03C136.168 388.183 136.845 389.243 137.691 390.16C138.361 390.95 139.321 391.81 140.301 391.48C140.577 391.368 140.82 391.187 141.006 390.954C141.191 390.721 141.314 390.444 141.361 390.15C141.451 389.563 141.4 388.963 141.211 388.4C140.819 387.085 140.136 385.874 139.211 384.86C138.774 384.313 138.181 383.912 137.511 383.71C137.176 383.618 136.82 383.637 136.497 383.766C136.174 383.894 135.902 384.123 135.721 384.42" fill="black"/>
</g>
<g opacity="0.3">
<path opacity="0.3" d="M125.86 390.44C125.46 390.835 125.195 391.347 125.102 391.901C125.008 392.456 125.092 393.026 125.34 393.53C125.816 394.684 126.493 395.743 127.34 396.66C128.02 397.45 128.97 398.31 129.96 397.98C130.235 397.867 130.477 397.685 130.663 397.452C130.848 397.22 130.971 396.944 131.02 396.65C131.107 396.062 131.052 395.462 130.86 394.9C130.472 393.583 129.788 392.372 128.86 391.36C128.423 390.813 127.83 390.412 127.16 390.21C126.825 390.118 126.469 390.137 126.146 390.266C125.824 390.394 125.551 390.623 125.37 390.92" fill="black"/>
</g>
<g opacity="0.3">
<path opacity="0.3" d="M129.001 384.38C128.601 384.775 128.336 385.287 128.242 385.841C128.149 386.396 128.232 386.966 128.481 387.47C128.957 388.624 129.634 389.683 130.481 390.6C131.161 391.39 132.111 392.25 133.101 391.92C133.377 391.808 133.619 391.626 133.804 391.393C133.99 391.161 134.113 390.884 134.161 390.59C134.248 390.002 134.193 389.402 134.001 388.84C133.613 387.523 132.929 386.312 132.001 385.3C131.564 384.753 130.971 384.352 130.301 384.15C129.966 384.058 129.61 384.078 129.287 384.206C128.964 384.334 128.692 384.563 128.511 384.86" fill="black"/>
</g>
<g opacity="0.3">
<path opacity="0.3" d="M147 421.3C149.857 426.677 153.456 431.625 157.69 436C161.947 440.404 167.197 443.723 173 445.68C175.66 446.53 178.59 447.01 181.23 446.1C184.97 444.81 187.34 440.9 187.77 436.97C188.2 433.04 187 429.11 185.42 425.49C184.75 429.15 183.93 433.09 181.17 435.59C179.928 436.607 178.48 437.343 176.927 437.747C175.373 438.151 173.75 438.213 172.17 437.93C168.998 437.334 165.97 436.136 163.25 434.4C157.409 430.998 152.077 426.79 147.41 421.9" fill="black"/>
</g>
<g opacity="0.3">
<path opacity="0.3" d="M143.282 415.87C142.992 416.27 142.702 416.68 142.422 417.09C143.657 415.098 145.283 413.377 147.201 412.031C149.12 410.685 151.292 409.742 153.585 409.259C155.879 408.776 158.246 408.763 160.545 409.22C162.844 409.678 165.026 410.597 166.959 411.922C168.893 413.246 170.538 414.949 171.795 416.928C173.052 418.906 173.895 421.118 174.272 423.432C174.65 425.745 174.555 428.11 173.993 430.386C173.431 432.661 172.413 434.799 171.002 436.67C159.759 432.074 149.582 425.215 141.102 416.52" fill="white"/>
</g>
<path d="M425.6 406C425.608 406.224 425.591 406.449 425.55 406.67C425.48 407.17 425.39 407.8 425.29 408.59C425.06 410.26 424.67 412.66 424.12 415.59C422.76 423.327 420.711 430.927 418 438.3C416.442 442.345 414.559 446.258 412.37 450C411.86 450.86 411.31 451.66 410.81 452.46L410.05 453.63L409.24 454.72L407.7 456.77C407.17 457.4 406.64 457.99 406.14 458.55C405.64 459.11 405.19 459.68 404.69 460.14L403.31 461.47L402.1 462.62L401 463.49L399.47 464.69C399.301 464.841 399.113 464.969 398.91 465.07C399.061 464.901 399.225 464.744 399.4 464.6L400.87 463.34L401.93 462.44L403.1 461.26L404.45 459.92C404.94 459.45 405.37 458.87 405.86 458.31L407.38 456.52L408.89 454.46L409.68 453.38C409.93 453 410.17 452.61 410.42 452.21C410.92 451.41 411.42 450.61 411.96 449.76C414.09 446.026 415.932 442.134 417.47 438.12C420.18 430.785 422.284 423.239 423.76 415.56C424.35 412.62 424.76 410.23 425.09 408.56C425.23 407.78 425.35 407.15 425.44 406.66C425.477 406.436 425.53 406.216 425.6 406Z" fill="#263238"/>
<path d="M195.541 345.34C195.672 345.16 195.827 344.999 196.001 344.86L197.391 343.56C198.001 342.99 198.751 342.31 199.651 341.56C200.551 340.81 201.551 339.9 202.711 338.98C205.001 337.09 207.811 334.98 211.021 332.68C214.231 330.38 217.861 328.09 221.781 325.81C225.701 323.53 229.551 321.57 233.091 319.89C236.631 318.21 239.911 316.89 242.691 315.82C244.071 315.27 245.341 314.82 246.451 314.44C247.561 314.06 248.531 313.73 249.321 313.49L251.151 312.93C251.358 312.853 251.572 312.8 251.791 312.77C251.595 312.873 251.391 312.96 251.181 313.03L249.381 313.68C248.601 313.95 247.651 314.29 246.551 314.68C245.451 315.07 244.191 315.55 242.821 316.12C240.071 317.21 236.821 318.62 233.301 320.29C229.781 321.96 226.001 324 222.001 326.24C218.001 328.48 214.481 330.84 211.251 333.06C208.021 335.28 205.251 337.4 202.901 339.25C201.731 340.15 200.711 341.02 199.801 341.77C198.891 342.52 198.111 343.16 197.491 343.71L196.031 344.94C195.884 345.092 195.719 345.226 195.541 345.34Z" fill="#263238"/>
<path d="M167.391 328.64C167.391 328.64 167.451 328.59 167.571 328.5L168.131 328.12L170.331 326.72C171.281 326.11 172.451 325.38 173.851 324.59C175.251 323.8 176.851 322.84 178.611 321.92L181.411 320.43C182.411 319.92 183.411 319.43 184.501 318.91C186.621 317.84 188.961 316.84 191.401 315.75C196.331 313.67 201.831 311.59 207.731 309.75C213.631 307.91 219.361 306.58 224.611 305.54C227.241 305.07 229.741 304.59 232.101 304.28C233.271 304.12 234.411 303.93 235.501 303.81L238.661 303.46C240.661 303.22 242.491 303.12 244.091 303C245.691 302.88 247.091 302.81 248.211 302.78L250.811 302.71H251.481C251.56 302.695 251.641 302.695 251.721 302.71H251.491L250.811 302.77L248.221 302.94C247.091 303 245.711 303.08 244.121 303.24C242.531 303.4 240.701 303.51 238.701 303.78L235.551 304.16C234.461 304.29 233.331 304.49 232.161 304.66C229.811 304.98 227.321 305.48 224.701 305.96C219.481 307.03 213.771 308.41 207.881 310.2C201.991 311.99 196.511 314.08 191.591 316.13C189.151 317.2 186.811 318.19 184.691 319.24C183.621 319.76 182.571 320.24 181.591 320.73L178.781 322.19C176.981 323.09 175.401 324.01 174.001 324.78C172.601 325.55 171.401 326.25 170.431 326.83L168.191 328.15L167.601 328.48C167.471 328.62 167.391 328.65 167.391 328.64Z" fill="#263238"/>
<path d="M286.561 295.68C286.621 295.83 284.041 296.92 281.191 298.83C278.341 300.74 276.331 302.69 276.191 302.57C278.923 299.348 282.506 296.96 286.531 295.68H286.561Z" fill="#263238"/>
<path d="M303.481 301.11C303.481 301.21 302.001 300.54 299.551 299.92C296.359 299.086 293.051 298.782 289.761 299.02C286.469 299.158 283.247 300.014 280.321 301.53C279.156 302.231 278.154 303.172 277.381 304.29C277.483 303.926 277.656 303.586 277.891 303.29C278.498 302.46 279.258 301.754 280.131 301.21C282.311 299.78 285.821 298.79 289.721 298.49C293.068 298.248 296.431 298.607 299.651 299.55C300.622 299.821 301.574 300.155 302.501 300.55C302.847 300.701 303.175 300.888 303.481 301.11Z" fill="#263238"/>
<path d="M270.621 309.45L271.791 312.25C272.137 312.974 272.373 313.746 272.491 314.54C272.548 314.939 272.518 315.345 272.404 315.732C272.29 316.118 272.095 316.475 271.831 316.78C271.381 317.16 270.819 317.383 270.23 317.414C269.641 317.444 269.059 317.281 268.571 316.95C267.624 316.249 266.924 315.265 266.571 314.14C266.151 313.04 265.871 311.88 265.361 310.82C266.01 310.229 266.499 309.484 266.784 308.654C267.069 307.823 267.14 306.935 266.991 306.07C266.991 306.07 268.001 309.27 270.621 309.45Z" fill="#F5F5F5"/>
<path d="M254.291 299.25C255.177 297.466 256.425 295.887 257.956 294.612C259.486 293.338 261.266 292.397 263.181 291.85C269.561 290.17 276.181 296.85 276.181 296.85C276.181 296.85 268.471 294.58 268.581 298.41C268.691 302.24 270.961 302.15 268.401 304.67C265.841 307.19 261.451 304.54 260.401 301.57L258.341 298.67L254.291 299.25Z" fill="#263238"/>
<path d="M280.712 303C280.712 303 280.712 303.13 280.762 303.36C280.795 303.709 280.795 304.061 280.762 304.41C280.579 305.691 280.061 306.902 279.262 307.92C278.678 308.693 277.944 309.339 277.103 309.821C276.263 310.302 275.334 310.608 274.372 310.72C273.184 310.811 271.992 310.619 270.892 310.163C269.792 309.706 268.816 308.995 268.042 308.09C267.275 307.21 266.736 306.156 266.472 305.02L266.962 304.88C267.262 305.821 267.344 306.819 267.2 307.796C267.056 308.774 266.691 309.705 266.132 310.52C265.375 311.579 264.305 312.374 263.072 312.792C261.84 313.211 260.507 313.231 259.262 312.85C258.999 312.77 258.745 312.667 258.502 312.54C258.342 312.45 258.262 312.4 258.262 312.38C258.262 312.36 258.632 312.52 259.312 312.68C260.273 312.899 261.271 312.899 262.232 312.68C263.672 312.355 264.935 311.493 265.762 310.27C266.266 309.508 266.593 308.642 266.718 307.737C266.843 306.832 266.762 305.91 266.482 305.04L266.972 304.91C267.227 305.961 267.731 306.935 268.442 307.75C269.162 308.595 270.07 309.261 271.092 309.695C272.114 310.128 273.223 310.319 274.332 310.25C275.237 310.151 276.115 309.874 276.913 309.435C277.711 308.996 278.414 308.403 278.982 307.69C279.776 306.732 280.319 305.591 280.562 304.37C280.692 303.53 280.662 303 280.712 303Z" fill="#263238"/>
<path d="M268.351 292.79C267.689 292.889 267.019 292.919 266.351 292.88C264.733 292.863 263.121 293.072 261.561 293.5C260.02 293.95 258.621 294.79 257.501 295.94C256.671 296.85 256.371 297.58 256.291 297.55C256.423 296.857 256.749 296.215 257.231 295.7C258.322 294.401 259.778 293.46 261.411 293C263.021 292.554 264.695 292.388 266.361 292.51C267.035 292.499 267.706 292.594 268.351 292.79Z" fill="white"/>
<path d="M270.271 317.64C269.307 316.019 268.579 314.268 268.111 312.44C267.486 310.662 267.123 308.803 267.031 306.92C267.181 306.92 267.711 309.34 268.611 312.29C269.511 315.24 270.411 317.58 270.271 317.64Z" fill="#263238"/>
<path d="M199.07 328.85C199.192 328.721 199.326 328.603 199.47 328.5L200.68 327.56C201.68 326.75 203.31 325.64 205.3 324.34C207.29 323.04 209.71 321.58 212.48 320.08C215.25 318.58 218.37 317.08 221.73 315.71C225.09 314.34 228.36 313.22 231.37 312.31C234.38 311.4 237.14 310.74 239.47 310.31C241.8 309.88 243.7 309.51 245.02 309.31L246.54 309.12C246.716 309.1 246.894 309.1 247.07 309.12C246.905 309.191 246.729 309.239 246.55 309.26L245.05 309.54C243.74 309.76 241.86 310.14 239.55 310.66C237.24 311.18 234.55 311.88 231.55 312.79C228.55 313.7 225.31 314.85 221.96 316.21C218.61 317.57 215.52 319.08 212.74 320.53C209.96 321.98 207.54 323.41 205.53 324.67C203.52 325.93 201.93 326.99 200.84 327.75L199.57 328.6C199.24 328.78 199.08 328.87 199.07 328.85Z" fill="#263238"/>
<path d="M249.178 284.798C252.067 272.683 244.587 260.521 232.473 257.633C220.358 254.745 208.196 262.224 205.308 274.338C202.42 286.453 209.899 298.615 222.013 301.503C234.128 304.391 246.29 296.912 249.178 284.798Z" fill="#F5F5F5"/>
<path d="M249.81 279.6C249.81 290.48 242.46 299.31 236.24 299.31C230.02 299.31 225 290.48 225 279.6C225 268.72 230 259.88 236.28 259.88C242.56 259.88 249.81 268.71 249.81 279.6Z" fill="#112349"/>
<path d="M241.241 272.31C243.373 272.31 245.101 270.582 245.101 268.45C245.101 266.318 243.373 264.59 241.241 264.59C239.109 264.59 237.381 266.318 237.381 268.45C237.381 270.582 239.109 272.31 241.241 272.31Z" fill="white"/>
<path d="M231.261 293.92C231.036 293.631 230.848 293.315 230.701 292.98C230.229 292.095 229.825 291.176 229.491 290.23C228.972 288.832 228.567 287.394 228.281 285.93C227.941 284.136 227.754 282.316 227.721 280.49C227.715 278.661 227.865 276.834 228.171 275.03C228.428 273.562 228.802 272.118 229.291 270.71C229.604 269.759 229.988 268.833 230.441 267.94C230.577 267.585 230.758 267.248 230.981 266.94C231.071 266.94 230.381 268.39 229.641 270.79C229.211 272.193 228.877 273.622 228.641 275.07C228.368 276.847 228.235 278.642 228.241 280.44C228.273 282.237 228.444 284.029 228.751 285.8C229.014 287.247 229.378 288.674 229.841 290.07C230.631 292.49 231.351 293.88 231.261 293.92Z" fill="white"/>
<path d="M221.531 250.88C221.471 251.61 220.631 252.17 219.531 252.69C218.431 253.21 216.941 253.69 215.471 254.36C214.001 255.03 212.711 255.61 211.611 256.11C210.511 256.61 209.611 256.91 208.961 256.52C208.311 256.13 208.231 255.04 208.961 253.59C209.948 251.76 211.554 250.342 213.491 249.59C215.347 248.772 217.418 248.583 219.391 249.05C220.801 249.43 221.591 250.18 221.531 250.88Z" fill="#263238"/>
<path d="M113.91 443L118.98 435.06C143.12 461.58 222.88 493.12 294.29 421.83C324.96 391.21 322.48 339.47 322.48 339.47L316.38 320.31H322.48C322.48 320.31 340.16 352.92 321.65 395.62C321.65 395.62 302.65 446.23 244.48 464.62C152.72 493.6 113.91 443 113.91 443Z" fill="#ABABAB"/>
<g opacity="0.7">
<path opacity="0.7" d="M113.91 443L118.98 435.06C143.12 461.58 222.88 493.12 294.29 421.83C324.96 391.21 322.48 339.47 322.48 339.47L316.38 320.31H322.48C322.48 320.31 340.16 352.92 321.65 395.62C321.65 395.62 302.65 446.23 244.48 464.62C152.72 493.6 113.91 443 113.91 443Z" fill="white"/>
</g>
<path d="M112.543 452.703C129.472 435.773 129.472 408.326 112.543 391.396C95.614 374.467 68.1663 374.467 51.2371 391.396C34.3078 408.326 34.3078 435.773 51.237 452.702C68.1663 469.632 95.614 469.632 112.543 452.703Z" fill="#ABABAB"/>
<g opacity="0.7">
<path opacity="0.7" d="M112.543 452.703C129.472 435.773 129.472 408.326 112.543 391.396C95.614 374.467 68.1663 374.467 51.2371 391.396C34.3078 408.326 34.3078 435.773 51.237 452.702C68.1663 469.632 95.614 469.632 112.543 452.703Z" fill="white"/>
</g>
<path d="M92.2812 379.91C92.2579 380.188 92.2077 380.462 92.1312 380.73C92.0112 381.31 91.8312 382.09 91.6212 383.08C91.5012 383.59 91.3712 384.16 91.2312 384.77C91.0912 385.38 90.8712 386.04 90.6712 386.77C90.2412 388.19 89.8312 389.83 89.1712 391.58L88.1712 394.34C87.8312 395.34 87.4012 396.27 86.9912 397.29C86.2112 399.34 85.1712 401.45 84.1212 403.68C81.7153 408.468 78.9682 413.076 75.9012 417.47C72.7711 421.821 69.3322 425.942 65.6112 429.8C63.8412 431.53 62.2012 433.2 60.5212 434.62C59.7012 435.34 58.9212 436.07 58.1312 436.71L55.8412 438.54C54.4112 439.74 53.0012 440.67 51.8412 441.54C51.2312 441.97 50.6812 442.38 50.1512 442.73L48.6812 443.66L46.6812 444.92C46.4531 445.082 46.2084 445.22 45.9512 445.33C46.1637 445.149 46.3875 444.982 46.6212 444.83L48.6212 443.49L50.0612 442.49C50.5812 442.12 51.1212 441.7 51.7212 441.27C52.9012 440.38 54.2912 439.42 55.7212 438.21L57.9812 436.37C58.7712 435.72 59.5312 434.99 60.3412 434.26C62.0012 432.83 63.6312 431.15 65.3412 429.42C69.007 425.573 72.4018 421.477 75.5012 417.16C78.5559 412.79 81.3025 408.212 83.7212 403.46C84.7812 401.24 85.8212 399.15 86.6212 397.12C87.0412 396.12 87.4812 395.12 87.8312 394.19C88.1812 393.26 88.5112 392.32 88.8312 391.45C89.5112 389.71 89.9512 388.08 90.4012 386.68C90.6112 385.97 90.8312 385.31 91.0012 384.68C91.1712 384.05 91.3012 383.51 91.4312 383C91.6912 382 91.8912 381.25 92.0412 380.68C92.0994 380.417 92.1797 380.159 92.2812 379.91Z" fill="#ABABAB"/>
<path d="M102.53 384.33C102.499 384.624 102.442 384.916 102.36 385.2C102.22 385.81 102.03 386.63 101.78 387.67C101.65 388.21 101.5 388.81 101.34 389.46C101.18 390.11 100.95 390.8 100.72 391.55C100.25 393.04 99.7999 394.78 99.0699 396.61L97.9999 399.52C97.6299 400.52 97.1399 401.52 96.6899 402.62C95.8199 404.77 94.6899 406.98 93.5199 409.31C90.8611 414.318 87.8187 419.112 84.4199 423.65C80.9676 428.14 77.1801 432.362 73.0899 436.28C71.1699 438.05 69.3499 439.75 67.5299 441.19C66.6299 441.92 65.7899 442.67 64.9199 443.3L62.4299 445.15C60.8799 446.36 59.3499 447.3 58.0499 448.15C56.7499 449 55.5999 449.73 54.6499 450.28L52.4499 451.56C52.2001 451.718 51.9395 451.859 51.6699 451.98C51.8999 451.792 52.144 451.621 52.3999 451.47L54.5399 450.11C55.4799 449.53 56.6199 448.82 57.8899 447.91C59.1599 447 60.6799 446.05 62.2199 444.83L64.6699 443C65.5299 442.36 66.3599 441.6 67.2499 440.87C69.0599 439.42 70.8499 437.72 72.7599 435.95C76.805 432.019 80.5614 427.801 83.9999 423.33C87.3794 418.818 90.4146 414.058 93.0799 409.09C94.2599 406.77 95.3999 404.58 96.2899 402.44C96.7399 401.38 97.2899 400.38 97.6099 399.37C97.9299 398.36 98.3599 397.37 98.7099 396.49C99.4599 394.66 99.9299 392.95 100.43 391.49C100.67 390.74 100.92 390.05 101.1 389.41C101.28 388.77 101.43 388.18 101.57 387.64C101.86 386.64 102.08 385.8 102.25 385.2C102.326 384.905 102.419 384.614 102.53 384.33Z" fill="#ABABAB"/>
<path d="M112 392.12C111.95 392.412 111.876 392.7 111.78 392.98C111.6 393.59 111.35 394.4 111.04 395.44C110.88 395.97 110.69 396.56 110.5 397.2C110.31 397.84 110.02 398.53 109.75 399.28C109.19 400.75 108.62 402.46 107.75 404.28L106.52 407.15C106.09 408.15 105.57 409.15 105.06 410.21C104.06 412.33 102.84 414.51 101.58 416.82C98.7354 421.757 95.5581 426.494 92.0703 431C88.4983 435.459 84.6224 439.666 80.4703 443.59C78.4703 445.36 76.6903 447.06 74.8403 448.51C73.9303 449.24 73.0803 449.98 72.2003 450.63L69.6903 452.49C68.1103 453.7 66.5803 454.65 65.2703 455.49C64.6103 455.92 64.0003 456.34 63.4203 456.69L61.8303 457.63L59.6103 458.91C59.3566 459.067 59.0927 459.208 58.8203 459.33C59.0529 459.14 59.3004 458.97 59.5603 458.82L61.7203 457.46L63.2903 456.46C63.8603 456.1 64.4603 455.67 65.1103 455.23C66.4003 454.32 67.9103 453.36 69.4703 452.13C70.2703 451.53 71.1003 450.91 71.9603 450.25C72.8203 449.59 73.6603 448.85 74.5703 448.11C76.3903 446.66 78.2103 444.95 80.1403 443.19C84.2531 439.258 88.1015 435.059 91.6603 430.62C95.1617 426.14 98.3621 421.433 101.24 416.53C102.51 414.23 103.76 412.08 104.76 409.97C105.27 408.97 105.76 407.97 106.24 406.97C106.72 405.97 107.09 405.02 107.49 404.12C108.33 402.32 108.92 400.62 109.49 399.12C109.78 398.39 110.05 397.71 110.28 397.07C110.51 396.43 110.69 395.85 110.87 395.32C111.22 394.32 111.5 393.5 111.7 392.9C111.782 392.633 111.882 392.373 112 392.12Z" fill="#ABABAB"/>
<path d="M123.371 433.25C123.021 433.162 122.684 433.028 122.371 432.85C121.771 432.57 120.901 432.13 119.841 431.58C117.721 430.48 114.841 428.88 111.691 427C108.541 425.12 105.801 423.31 103.831 421.95C102.831 421.27 102.061 420.71 101.521 420.3C101.228 420.113 100.96 419.891 100.721 419.64C101.048 419.766 101.357 419.934 101.641 420.14L104.031 421.64C106.031 422.92 108.841 424.64 111.961 426.55C115.081 428.46 117.961 430.08 120.021 431.26L122.471 432.67C122.797 432.818 123.101 433.014 123.371 433.25Z" fill="#ABABAB"/>
<path d="M125.201 423.87C124.193 423.303 123.224 422.668 122.301 421.97C120.531 420.76 118.071 419.12 115.301 417.42C112.531 415.72 109.921 414.3 108.041 413.26C107.001 412.745 105.998 412.157 105.041 411.5C105.349 411.571 105.645 411.685 105.921 411.84C106.471 412.08 107.251 412.45 108.211 412.93C110.131 413.93 112.761 415.28 115.571 416.98C118.381 418.68 120.811 420.38 122.571 421.67C123.431 422.32 124.121 422.85 124.571 423.24C125.021 423.63 125.231 423.85 125.201 423.87Z" fill="#ABABAB"/>
<path d="M98.4906 461.2C98.3406 461.2 98.0006 453.26 97.7306 443.45C97.4606 433.64 97.3506 425.68 97.4906 425.68C97.6306 425.68 97.9706 433.62 98.2506 443.43C98.5306 453.24 98.6306 461.2 98.4906 461.2Z" fill="#ABABAB"/>
<path d="M77.1208 466.17C76.8573 462.867 76.7705 459.552 76.8608 456.24C76.7703 452.928 76.8571 449.613 77.1208 446.31C77.3785 449.613 77.4653 452.928 77.3808 456.24C77.465 459.552 77.3783 462.867 77.1208 466.17Z" fill="#ABABAB"/>
<path d="M87.6216 465C87.4816 465 87.4016 458.5 87.4616 450.49C87.5216 442.48 87.6716 435.97 87.8216 435.97C87.9716 435.97 88.0316 442.47 87.9816 450.49C87.9316 458.51 87.7616 465 87.6216 465Z" fill="#ABABAB"/>
<path d="M65.4613 429.79C65.3813 429.91 59.7213 426.26 52.8313 421.63C45.9413 417 40.4013 413.15 40.4813 413C40.5613 412.85 46.2213 416.53 53.1213 421.16C60.0213 425.79 65.5413 429.67 65.4613 429.79Z" fill="#ABABAB"/>
<path d="M57.9109 436C57.6108 435.954 57.3203 435.86 57.0509 435.72C56.5209 435.51 55.7509 435.17 54.8209 434.72C52.4177 433.546 50.0808 432.241 47.8209 430.81C45.1609 429.13 42.8209 427.46 41.2009 426.22C40.2818 425.593 39.4217 424.883 38.6309 424.1C39.6015 424.642 40.5337 425.25 41.4209 425.92C43.1109 427.09 45.4209 428.7 48.1009 430.37C50.7809 432.04 53.2209 433.42 55.0309 434.37C56.022 434.856 56.9837 435.401 57.9109 436Z" fill="#ABABAB"/>
<path d="M83.9316 403.6C83.4423 403.836 82.9338 404.03 82.4116 404.18C81.8089 404.403 81.1947 404.593 80.5716 404.75C79.8516 404.95 79.0316 405.18 78.1116 405.37C75.9539 405.836 73.7699 406.17 71.5716 406.37C68.8787 406.609 66.1742 406.693 63.4716 406.62C60.7696 406.523 58.0753 406.272 55.4016 405.87C53.2204 405.534 51.0603 405.073 48.9316 404.49C48.0216 404.26 47.2116 404 46.5016 403.77C45.7916 403.54 45.1716 403.33 44.6916 403.13C44.1707 402.961 43.6655 402.747 43.1816 402.49C43.7164 402.597 44.2415 402.747 44.7516 402.94C45.2516 403.11 45.8616 403.3 46.5816 403.49C47.3016 403.68 48.1116 403.93 49.0216 404.14C50.8416 404.61 53.0216 405.01 55.4716 405.4C58.1247 405.769 60.7948 406.002 63.4716 406.1C66.1401 406.169 68.8104 406.099 71.4716 405.89C73.6628 405.712 75.8427 405.415 78.0016 405C78.9316 404.84 79.7516 404.63 80.4716 404.46C81.1916 404.29 81.8216 404.13 82.3216 403.98C82.8445 403.801 83.3838 403.673 83.9316 403.6Z" fill="#ABABAB"/>
<path d="M88.7208 392.38C88.2499 392.646 87.7583 392.873 87.2508 393.06C86.7708 393.28 86.1708 393.5 85.4708 393.75C84.7708 394 83.9708 394.29 83.0808 394.55C80.9815 395.194 78.8482 395.721 76.6908 396.13C74.0451 396.614 71.3741 396.947 68.6908 397.13C66.0065 397.289 63.3151 397.289 60.6308 397.13C58.4407 396.989 56.2625 396.702 54.1108 396.27C53.1808 396.11 52.3608 395.89 51.6408 395.7C51.0248 395.549 50.4173 395.365 49.8208 395.15C49.2994 394.998 48.7911 394.804 48.3008 394.57C48.8388 394.649 49.368 394.779 49.8808 394.96C50.3708 395.11 50.9908 395.26 51.7108 395.41C52.4308 395.56 53.2508 395.77 54.1708 395.91C56.3182 396.281 58.4851 396.528 60.6608 396.65C63.3268 396.771 65.9973 396.747 68.6608 396.58C71.3225 396.38 73.9725 396.046 76.6008 395.58C79.0108 395.11 81.1808 394.64 82.9608 394.12C83.8608 393.88 84.6608 393.62 85.3708 393.39C86.0808 393.16 86.6808 392.98 87.1708 392.79C87.6736 392.605 88.1925 392.468 88.7208 392.38Z" fill="#ABABAB"/>
<path d="M91.6804 382.5C91.263 382.733 90.8201 382.918 90.3604 383.05C89.5004 383.38 88.2304 383.81 86.6604 384.29C82.5497 385.556 78.3471 386.502 74.0904 387.12C69.8303 387.742 65.5235 387.987 61.2204 387.85C59.5704 387.78 58.2204 387.68 57.3204 387.57C56.841 387.543 56.3655 387.469 55.9004 387.35C56.3794 387.307 56.8614 387.307 57.3404 387.35C58.2504 387.4 59.5804 387.44 61.2304 387.46C65.5023 387.496 69.7709 387.212 74.0004 386.61C78.2352 385.982 82.4267 385.09 86.5504 383.94C88.1304 383.5 89.4104 383.13 90.2904 382.86C90.7428 382.701 91.2078 382.581 91.6804 382.5Z" fill="#ABABAB"/>
<path d="M109.201 425.15C107.484 427.411 105.63 429.565 103.651 431.6C101.798 433.754 99.8182 435.794 97.7207 437.71C99.4391 435.447 101.292 433.29 103.271 431.25C105.121 429.098 107.102 427.061 109.201 425.15Z" fill="#ABABAB"/>
<path d="M117.521 430.07C117.413 430.371 117.262 430.654 117.071 430.91C116.751 431.44 116.251 432.17 115.601 433.06C112.189 437.681 107.828 441.52 102.811 444.32C101.811 444.85 101.061 445.25 100.501 445.5C100.222 445.654 99.9224 445.769 99.6113 445.84C99.6113 445.77 100.771 445.14 102.611 444C105.025 442.524 107.313 440.852 109.451 439C111.566 437.116 113.519 435.059 115.291 432.85C116.681 431.13 117.451 430 117.521 430.07Z" fill="#ABABAB"/>
<path d="M120.051 434.51C119.866 436.476 119.272 438.382 118.306 440.104C117.339 441.826 116.023 443.327 114.441 444.51C115.698 443.042 116.841 441.481 117.861 439.84C118.721 438.12 119.453 436.338 120.051 434.51Z" fill="#ABABAB"/>
<path d="M128.441 443.7C128.139 445.31 127.402 446.808 126.311 448.03C125.353 449.36 124.044 450.399 122.531 451.03C123.727 449.993 124.856 448.88 125.911 447.7C126.831 446.417 127.676 445.081 128.441 443.7Z" fill="#ABABAB"/>
<path d="M142.001 452C142.049 453.728 141.597 455.432 140.701 456.91C139.951 458.467 138.758 459.768 137.271 460.65C138.39 459.409 139.394 458.071 140.271 456.65C140.983 455.154 141.562 453.598 142.001 452Z" fill="#ABABAB"/>
<path d="M157.531 459.46C157.902 461.084 157.73 462.784 157.041 464.3C156.511 465.874 155.487 467.235 154.121 468.18C156.207 465.74 157.408 462.668 157.531 459.46Z" fill="#ABABAB"/>
<path d="M171.872 472.25C171.722 472.2 172.322 470.25 172.462 467.81C172.602 465.37 172.252 463.36 172.402 463.33C173.358 466.264 173.169 469.45 171.872 472.25Z" fill="#ABABAB"/>
<path d="M183.621 473.11C183.481 473.05 184.201 471.31 184.391 469.04C184.581 466.77 184.191 464.94 184.391 464.91C184.886 466.245 185.077 467.674 184.951 469.092C184.825 470.511 184.384 471.883 183.661 473.11H183.621Z" fill="#ABABAB"/>
<path d="M200.062 473C199.912 473 200.152 471.29 199.882 469.24C199.612 467.19 198.972 465.62 199.112 465.56C199.871 466.623 200.318 467.877 200.402 469.18C200.652 470.46 200.534 471.785 200.062 473Z" fill="#ABABAB"/>
<path d="M211.42 472C211.26 472 211.26 470.39 210.72 468.52C210.18 466.65 209.37 465.26 209.5 465.18C210.301 466.107 210.888 467.198 211.219 468.376C211.551 469.555 211.62 470.792 211.42 472Z" fill="#ABABAB"/>
<path d="M224.75 469.07C224.59 469.07 224.67 467.5 224.08 465.71C223.49 463.92 222.54 462.71 222.67 462.59C223.557 463.392 224.216 464.413 224.581 465.551C224.946 466.688 225.004 467.902 224.75 469.07Z" fill="#ABABAB"/>
<path d="M241.16 465.73C241 465.73 240.98 463.98 240.25 461.99C239.52 460 238.42 458.64 238.54 458.54C239.529 459.435 240.284 460.558 240.74 461.811C241.197 463.064 241.341 464.409 241.16 465.73Z" fill="#ABABAB"/>
<path d="M255.001 460.33C254.851 460.33 254.301 458.56 253.121 456.58C251.941 454.6 250.631 453.24 250.741 453.13C253.03 454.897 254.554 457.473 255.001 460.33Z" fill="#ABABAB"/>
<path d="M270.47 452.22C270.32 452.22 269.85 450.34 268.59 448.32C267.33 446.3 265.85 445.02 265.95 444.9C267.198 445.71 268.25 446.787 269.032 448.052C269.814 449.318 270.305 450.742 270.47 452.22Z" fill="#ABABAB"/>
<path d="M285.581 441.39C284.922 440.224 284.184 439.104 283.371 438.04C282.436 437.083 281.434 436.194 280.371 435.38C281.73 435.761 282.928 436.575 283.781 437.7C284.761 438.705 285.392 439.999 285.581 441.39Z" fill="#ABABAB"/>
<path d="M298.52 430.34C298.39 430.43 297.19 428.82 295.37 427.18C293.55 425.54 291.85 424.47 291.93 424.33C293.359 424.861 294.653 425.701 295.72 426.79C296.901 427.756 297.857 428.967 298.52 430.34Z" fill="#ABABAB"/>
<path d="M310.111 415.93C309.981 416.01 308.981 414.39 307.221 412.93C305.461 411.47 303.711 410.73 303.771 410.58C305.164 410.937 306.457 411.605 307.555 412.533C308.653 413.462 309.527 414.626 310.111 415.94V415.93Z" fill="#ABABAB"/>
<path d="M320.44 398.78C319.273 397.846 318.054 396.978 316.79 396.18C315.443 395.54 314.061 394.976 312.65 394.49C314.201 394.481 315.723 394.911 317.04 395.73C318.443 396.399 319.623 397.458 320.44 398.78Z" fill="#ABABAB"/>
<path d="M326.721 380.25C324.02 378.684 320.916 377.953 317.801 378.15C319.343 377.703 320.974 377.662 322.536 378.029C324.099 378.397 325.54 379.162 326.721 380.25Z" fill="#ABABAB"/>
<path d="M329.51 360.35C329.46 360.5 327.83 359.93 325.74 359.71C323.65 359.49 321.94 359.71 321.92 359.51C324.463 358.792 327.185 359.094 329.51 360.35Z" fill="#ABABAB"/>
<path d="M328.481 340.42C327.539 340.54 326.589 340.58 325.641 340.54C324.702 340.661 323.756 340.708 322.811 340.68C324.602 339.89 326.624 339.797 328.481 340.42Z" fill="#ABABAB"/>
<path d="M324.401 326.73C323.414 326.525 322.408 326.434 321.401 326.46C320.424 326.65 319.471 326.949 318.561 327.35C318.561 327.3 318.741 327.01 319.221 326.69C319.859 326.278 320.585 326.021 321.341 325.94C322.096 325.855 322.86 325.951 323.571 326.22C324.151 326.43 324.431 326.67 324.401 326.73Z" fill="#ABABAB"/>
<g opacity="0.3">
<path opacity="0.3" d="M256.58 394C261.43 403.21 272.74 407.94 283.08 406.68C293.42 405.42 302.63 398.99 309.08 390.79C313.83 384.73 317.35 376.88 315.39 369.44C310.26 380.104 301.287 388.432 290.271 392.754C279.255 397.076 267.012 397.071 256 392.74" fill="black"/>
</g>
<path d="M317.101 314.75C314.778 311.169 313.926 306.83 314.723 302.636C315.521 298.442 317.906 294.718 321.381 292.24C324.141 290.24 327.471 289.17 330.081 287.01C331.677 285.61 332.977 283.905 333.905 281.996C334.832 280.086 335.368 278.01 335.481 275.89C335.674 271.637 334.732 267.409 332.751 263.64L335.531 262.27L335.771 262.57C337.617 264.994 338.902 267.797 339.535 270.777C340.168 273.757 340.132 276.841 339.43 279.805C338.728 282.77 337.377 285.542 335.476 287.922C333.574 290.302 331.168 292.231 328.431 293.57C326.349 294.525 324.391 295.731 322.601 297.16C319.131 300.16 320.551 303.57 320.551 303.57" fill="#ABABAB"/>
<g opacity="0.7">
<path opacity="0.7" d="M317.101 314.75C314.778 311.169 313.926 306.83 314.723 302.636C315.521 298.442 317.906 294.718 321.381 292.24C324.141 290.24 327.471 289.17 330.081 287.01C331.677 285.61 332.977 283.905 333.905 281.996C334.832 280.086 335.368 278.01 335.481 275.89C335.674 271.637 334.732 267.409 332.751 263.64L335.531 262.27L335.771 262.57C337.617 264.994 338.902 267.797 339.535 270.777C340.168 273.757 340.132 276.841 339.43 279.805C338.728 282.77 337.377 285.542 335.476 287.922C333.574 290.302 331.168 292.231 328.431 293.57C326.349 294.525 324.391 295.731 322.601 297.16C319.131 300.16 320.551 303.57 320.551 303.57" fill="white"/>
</g>
<path d="M321.001 303.75C319.868 303.526 318.715 303.425 317.561 303.45C316.416 303.634 315.296 303.946 314.221 304.38C315.129 303.554 316.282 303.045 317.505 302.931C318.728 302.818 319.955 303.105 321.001 303.75Z" fill="#ABABAB"/>
<path d="M323.62 296.12C323.48 296.17 323.04 295.3 322.22 294.48C321.4 293.66 320.54 293.2 320.59 293.06C320.64 292.92 321.68 293.19 322.59 294.11C323.5 295.03 323.75 296.08 323.62 296.12Z" fill="#ABABAB"/>
<path d="M333.43 290.32C333.29 290.37 332.93 289.4 332.14 288.45C331.35 287.5 330.5 286.94 330.57 286.81C330.64 286.68 331.69 287.07 332.57 288.13C333.45 289.19 333.57 290.3 333.43 290.32Z" fill="#ABABAB"/>
<path d="M340.001 277.88C339.236 277.827 338.477 277.71 337.731 277.53C336.965 277.513 336.203 277.429 335.451 277.28C336.2 276.998 337.008 276.906 337.801 277.01C338.595 277.115 339.35 277.414 340.001 277.88Z" fill="#ABABAB"/>
<path d="M337.771 265.86C337.771 266.01 336.921 265.96 335.991 266.24C335.061 266.52 334.371 266.97 334.271 266.86C334.171 266.75 334.771 266.04 335.841 265.74C336.911 265.44 337.811 265.73 337.771 265.86Z" fill="#ABABAB"/>
<path d="M245.211 339.89C248.751 337.59 253.441 338.35 257.461 339.68C261.481 341.01 265.511 342.85 269.721 342.45C274.311 342.02 278.241 338.96 281.271 335.5C285.015 331.222 287.8 326.193 289.441 320.75C291.101 315.21 291.951 308.7 296.721 305.42C301.491 302.14 308.111 303.79 312.211 307.67C316.311 311.55 318.291 317.15 319.591 322.67C322.591 335.39 322.641 348.96 318.521 361.37C314.401 373.78 305.931 384.9 294.431 391.12C282.931 397.34 268.431 398.23 256.731 392.41" fill="#ABABAB"/>
<path d="M256.731 392.38C256.915 392.443 257.095 392.517 257.271 392.6L258.831 393.28C259.531 393.55 260.401 393.87 261.431 394.28C262.461 394.69 263.681 394.97 265.071 395.28C268.44 396.008 271.886 396.314 275.331 396.19C277.48 396.103 279.619 395.856 281.731 395.45C284.1 395.018 286.426 394.375 288.681 393.53C293.877 391.589 298.665 388.696 302.801 385C307.561 380.788 311.521 375.75 314.491 370.13C317.769 363.922 319.915 357.18 320.831 350.22C321.817 342.746 321.655 335.165 320.351 327.74C319.75 323.973 318.81 320.268 317.541 316.67C316.349 313.169 314.308 310.019 311.601 307.5C308.928 305.139 305.455 303.887 301.891 304C300.185 304.074 298.527 304.591 297.081 305.5C295.685 306.421 294.521 307.654 293.681 309.1C291.961 311.94 291.221 315.18 290.381 318.24C289.644 321.258 288.584 324.188 287.221 326.98C285.939 329.585 284.372 332.039 282.551 334.3C280.905 336.421 278.966 338.296 276.791 339.87C274.807 341.32 272.495 342.258 270.061 342.6C267.886 342.798 265.694 342.564 263.611 341.91C259.721 340.76 256.541 339.28 253.731 338.83C251.603 338.358 249.392 338.413 247.291 338.99C246.752 339.159 246.23 339.376 245.731 339.64C245.391 339.83 245.211 339.91 245.211 339.91L245.701 339.6C246.192 339.311 246.711 339.073 247.251 338.89C249.368 338.26 251.61 338.17 253.771 338.63C256.611 339.06 259.831 340.52 263.691 341.63C265.738 342.259 267.889 342.476 270.021 342.27C272.397 341.924 274.65 340.996 276.581 339.57C278.721 338.009 280.627 336.15 282.241 334.05C284.028 331.803 285.567 329.368 286.831 326.79C288.177 324.02 289.219 321.114 289.941 318.12C290.771 315.07 291.501 311.79 293.271 308.85C294.144 307.337 295.36 306.049 296.821 305.09C298.32 304.131 300.044 303.583 301.821 303.5C303.635 303.416 305.448 303.698 307.151 304.33C308.892 304.956 310.503 305.898 311.901 307.11C314.67 309.684 316.758 312.903 317.981 316.48C319.265 320.113 320.216 323.855 320.821 327.66C322.142 335.134 322.301 342.768 321.291 350.29C320.364 357.309 318.19 364.106 314.871 370.36C311.869 376.035 307.86 381.118 303.041 385.36C298.855 389.057 294.015 391.94 288.771 393.86C286.498 394.697 284.155 395.333 281.771 395.76C279.641 396.153 277.485 396.387 275.321 396.46C271.853 396.564 268.385 396.228 265.001 395.46C263.611 395.16 262.411 394.76 261.361 394.46C260.311 394.16 259.461 393.75 258.771 393.46L257.231 392.73C256.901 392.48 256.731 392.38 256.731 392.38Z" fill="#263238"/>
<path d="M299.771 317.15C299.259 316.727 298.849 316.194 298.571 315.59C297.816 314.162 297.437 312.565 297.471 310.95C297.49 309.338 297.913 307.757 298.701 306.35C298.99 305.748 299.419 305.224 299.951 304.82C300.021 304.88 299.541 305.46 299.031 306.52C298.368 307.908 298.014 309.423 297.991 310.961C297.969 312.499 298.279 314.023 298.901 315.43C299.391 316.5 299.851 317.1 299.771 317.15Z" fill="#263238"/>
<path d="M305.841 316.27C305.383 315.798 305.023 315.241 304.781 314.63C304.11 313.183 303.717 311.622 303.621 310.03C303.52 308.44 303.724 306.844 304.221 305.33C304.382 304.692 304.671 304.093 305.071 303.57C304.324 305.627 304.006 307.815 304.139 310C304.271 312.184 304.85 314.318 305.841 316.27Z" fill="#263238"/>
<path d="M310.7 318C310.068 316.483 309.807 314.838 309.94 313.2C309.896 311.557 310.239 309.927 310.94 308.44C311.09 308.49 310.52 310.57 310.46 313.21C310.4 315.85 310.85 318 310.7 318Z" fill="#263238"/>
<path d="M394.19 330.5C385.04 336.08 372.87 335.02 363.39 330.01C353.91 325 346.73 316.61 340.74 307.81C339.04 305.31 337.32 302.66 334.68 301.15C329.49 298.15 322.32 301.05 319.34 306.15C316.36 311.25 316.92 317.79 319.22 323.25C319.22 323.25 325.32 352.81 357.12 371.19" fill="#ABABAB"/>
<path d="M357.121 371.22C357.025 371.187 356.934 371.14 356.851 371.08L356.071 370.62C355.371 370.19 354.381 369.57 353.071 368.79C352.441 368.37 351.681 367.97 350.931 367.41L348.481 365.62C347.611 364.95 346.611 364.32 345.671 363.49L342.671 360.92C337.722 356.487 333.321 351.478 329.561 346C327.292 342.703 325.286 339.232 323.561 335.62C321.624 331.69 320.096 327.572 319.001 323.33V323.38C317.48 319.899 316.844 316.096 317.151 312.31C317.345 310.333 317.908 308.41 318.811 306.64C319.987 304.408 321.791 302.569 324 301.35C326.209 300.131 328.726 299.585 331.241 299.78C332.706 299.954 334.112 300.46 335.351 301.26C336.537 302.069 337.59 303.057 338.471 304.19C339.361 305.29 340.141 306.45 340.901 307.58C341.661 308.71 342.451 309.82 343.231 310.9C344.811 313.07 346.431 315.14 348.101 317.07C351.235 320.761 354.804 324.059 358.731 326.89C362.162 329.354 365.967 331.249 370.001 332.5C375.826 334.396 382.07 334.59 388.001 333.06C388.496 332.938 388.984 332.788 389.461 332.61C389.911 332.45 390.341 332.32 390.721 332.16C391.481 331.82 392.141 331.56 392.641 331.3L393.791 330.69C393.919 330.615 394.053 330.552 394.191 330.5C394.075 330.59 393.951 330.67 393.821 330.74L392.691 331.39C392.191 331.67 391.541 331.94 390.781 332.3C390.391 332.47 389.971 332.61 389.521 332.78C389.042 332.97 388.551 333.13 388.051 333.26C382.076 334.886 375.757 334.744 369.861 332.85C365.785 331.611 361.938 329.716 358.471 327.24C354.504 324.402 350.897 321.091 347.731 317.38C346.041 315.44 344.411 313.38 342.821 311.2C342.031 310.11 341.251 308.99 340.481 307.86C339.711 306.73 338.941 305.58 338.071 304.51C337.22 303.424 336.208 302.473 335.071 301.69C333.898 300.935 332.567 300.459 331.181 300.3C328.307 300.038 325.435 300.83 323.101 302.53C321.534 303.674 320.236 305.147 319.296 306.844C318.357 308.542 317.799 310.424 317.661 312.36C317.365 316.06 317.983 319.776 319.461 323.18V323.23C320.54 327.443 322.048 331.534 323.961 335.44C325.689 339.037 327.696 342.495 329.961 345.78C333.688 351.245 338.052 356.247 342.961 360.68L345.961 363.27C346.891 364.11 347.881 364.74 348.731 365.42L351.161 367.24C351.901 367.81 352.651 368.24 353.281 368.64L356.211 370.54L356.961 371.04C357.02 371.095 357.074 371.155 357.121 371.22Z" fill="#263238"/>
<path d="M327.821 317.89C327.063 315.474 325.998 313.165 324.651 311.02C322.311 307.52 319.331 305.68 319.451 305.54C320.148 305.83 320.793 306.232 321.361 306.73C324.251 309.013 326.367 312.131 327.421 315.66C327.682 316.375 327.818 317.129 327.821 317.89Z" fill="#263238"/>
<path d="M334 313.88C333.606 311.342 332.88 308.868 331.84 306.52C330.641 304.25 329.151 302.146 327.41 300.26C328.068 300.658 328.658 301.158 329.16 301.74C330.439 303.088 331.502 304.626 332.31 306.3C333.114 307.971 333.66 309.755 333.93 311.59C334.085 312.344 334.108 313.118 334 313.88Z" fill="#263238"/>
<g opacity="0.3">
<path opacity="0.3" d="M313.331 372.57C315.821 368.76 305.561 367.86 301.041 368.39C294.421 369.151 288.32 372.344 283.922 377.35C279.524 382.356 277.143 388.817 277.241 395.48C277.241 395.48 297.001 397.59 313.331 372.57Z" fill="white"/>
</g>
<g opacity="0.3">
<path opacity="0.3" d="M330.182 355.56C335.38 363.512 343.089 369.496 352.082 372.56C353.025 372.97 354.062 373.115 355.082 372.98C355.584 372.906 356.045 372.658 356.385 372.28C356.725 371.902 356.921 371.418 356.942 370.91C346.252 365.095 337.089 356.833 330.202 346.8C329.677 349.878 330.117 353.042 331.462 355.86" fill="black"/>
</g>
<path d="M316.422 288.079C325.228 279.272 325.228 264.995 316.422 256.188C307.615 247.382 293.338 247.382 284.531 256.188C275.725 264.995 275.725 279.272 284.531 288.079C293.338 296.885 307.615 296.885 316.422 288.079Z" fill="#F5F5F5"/>
<path d="M323.001 273.08C323.001 283.97 317.281 293.08 310.911 293.08C304.541 293.08 299.371 284.25 299.371 273.37C299.371 262.49 304.541 253.66 310.911 253.66C317.281 253.66 323.001 262.2 323.001 273.08Z" fill="#112349"/>
<path d="M305.301 282.43C305.113 282.207 304.958 281.958 304.841 281.69C304.479 280.983 304.168 280.251 303.911 279.5C302.17 274.481 302.315 268.999 304.321 264.08C304.617 263.343 304.972 262.631 305.381 261.95C305.508 261.687 305.673 261.444 305.871 261.23C305.951 261.23 305.351 262.35 304.671 264.23C303.794 266.658 303.308 269.21 303.231 271.79C303.165 274.367 303.502 276.938 304.231 279.41C304.841 281.28 305.391 282.39 305.301 282.43Z" fill="white"/>
<path d="M313.792 264.59C315.923 264.59 317.652 262.862 317.652 260.73C317.652 258.598 315.923 256.87 313.792 256.87C311.66 256.87 309.932 258.598 309.932 260.73C309.932 262.862 311.66 264.59 313.792 264.59Z" fill="white"/>
<path d="M315.08 244.3C314.65 244.89 313.56 244.88 312.19 244.66C310.82 244.44 309.1 244.04 307.24 243.74C305.38 243.44 303.7 243.26 302.35 243.07C301 242.88 299.96 242.61 299.69 241.93C299.42 241.25 300.07 240.28 301.59 239.47C302.484 239.013 303.447 238.706 304.44 238.56C305.653 238.371 306.888 238.371 308.1 238.56C310.286 238.892 312.321 239.874 313.94 241.38C315.14 242.62 315.49 243.73 315.08 244.3Z" fill="#263238"/>
<path d="M304.861 300.29C303.12 296.713 302.737 292.627 303.782 288.789C304.828 284.951 307.231 281.623 310.545 279.424C313.859 277.224 317.859 276.302 321.801 276.829C325.744 277.357 329.361 279.297 331.981 282.29" fill="#ABABAB"/>
<path d="M332.001 282.29C332.001 282.29 331.521 281.84 330.631 281.07C329.36 279.991 327.93 279.114 326.391 278.47C324.119 277.509 321.668 277.039 319.201 277.09C316.168 277.062 313.196 277.941 310.666 279.614C308.136 281.287 306.163 283.678 305.001 286.48C303.997 288.733 303.479 291.173 303.481 293.64C303.481 295.305 303.734 296.961 304.231 298.55C304.591 299.67 304.871 300.27 304.821 300.29C304.728 300.163 304.651 300.026 304.591 299.88C304.381 299.472 304.198 299.051 304.041 298.62C303.452 297.018 303.141 295.327 303.121 293.62C303.054 291.091 303.546 288.578 304.561 286.26C305.735 283.366 307.754 280.894 310.356 279.167C312.957 277.44 316.019 276.538 319.141 276.58C321.67 276.551 324.175 277.073 326.481 278.11C328.034 278.793 329.461 279.732 330.701 280.89C331.041 281.201 331.358 281.535 331.651 281.89C331.784 282.008 331.902 282.143 332.001 282.29Z" fill="#263238"/>
<path d="M260.08 214.9C259.921 214.984 259.748 215.041 259.57 215.07L258.08 215.47C257.43 215.63 256.64 215.86 255.73 216.14L254.28 216.57L252.66 217.12C246.782 219.174 241.143 221.856 235.84 225.12C230.531 228.395 225.452 232.03 220.64 236C218.79 237.52 217.3 238.76 216.29 239.64L215.1 240.64C214.83 240.87 214.68 240.98 214.66 240.96C214.769 240.817 214.893 240.686 215.03 240.57L216.15 239.5C217.15 238.58 218.58 237.3 220.4 235.73C225.167 231.679 230.239 228.002 235.57 224.73C240.903 221.42 246.609 218.755 252.57 216.79L254.2 216.26L255.68 215.87C256.6 215.61 257.39 215.41 258.05 215.28L259.57 214.98C259.736 214.933 259.908 214.906 260.08 214.9Z" fill="#263238"/>
<path d="M115.06 92.78C114.881 92.4061 114.744 92.0138 114.65 91.61C114.53 91.23 114.4 90.75 114.28 90.2C114.16 89.65 114 89 113.9 88.3C113.626 86.6466 113.472 84.9756 113.44 83.3C113.415 81.242 113.556 79.1854 113.86 77.15C114.193 75.1148 114.685 73.1087 115.33 71.15C115.883 69.5598 116.551 68.0123 117.33 66.52C117.64 65.87 117.99 65.32 118.27 64.82C118.55 64.32 118.82 63.92 119.05 63.59C119.264 63.2307 119.515 62.8954 119.8 62.59C119.88 62.64 118.89 64.11 117.66 66.67C116.95 68.1695 116.335 69.7126 115.82 71.29C115.208 73.2309 114.734 75.2124 114.4 77.22C114.106 79.23 113.956 81.2585 113.95 83.29C113.959 84.9624 114.076 86.6326 114.3 88.29C114.66 91.06 115.16 92.76 115.06 92.78Z" fill="#263238"/>
<path d="M351.245 31.5787L134.406 71.924L157.1 193.891L373.938 153.545L351.245 31.5787Z" fill="white"/>
<path d="M373.94 153.54C373.94 153.54 373.78 152.8 373.51 151.36C373.24 149.92 372.83 147.78 372.3 144.99C371.25 139.41 369.7 131.18 367.72 120.62C363.72 99.51 358.06 69.05 351.04 31.62L351.28 31.78L134.46 72.17L134.67 71.86C142.67 115 150.36 156.26 157.35 193.86L157.06 193.66L313.06 164.75L357.87 156.48L369.81 154.29L372.89 153.73L373.95 153.55L372.95 153.76L369.9 154.34L358 156.57L313.26 165L157.14 194.13L156.9 194.18V193.94C149.9 156.36 142.22 115.11 134.18 71.94V71.68H134.43L351.2 31.37H351.4V31.56L367.88 120.74C369.82 131.29 371.33 139.5 372.36 145.08L373.52 151.42C373.82 152.82 373.94 153.54 373.94 153.54Z" fill="#263238"/>
<path d="M227.671 118.66L221.001 119.9L222.601 128.47L210.261 130.77L208.661 122.2L185.001 126.6L183.461 118.35L198.341 86.68L211.451 84.24L198.091 113.78L207.171 112.09L205.751 104.48L217.751 102.26L219.171 109.86L225.811 108.63L227.671 118.66Z" fill="#263238"/>
<path d="M227.659 104.38C224.909 89.61 231.659 79.56 243.089 77.43C254.519 75.3 264.359 82.27 267.089 97.04C269.819 111.81 263.089 121.86 251.729 123.97C240.369 126.08 230.409 119.15 227.659 104.38ZM254.389 99.38C252.639 90 248.999 87 244.999 87.79C240.999 88.58 238.619 92.61 240.369 102.01C242.119 111.41 245.709 114.38 249.799 113.62C253.889 112.86 256.139 108.8 254.389 99.4V99.38Z" fill="#263238"/>
<path d="M316.231 102.18L309.581 103.42L311.171 111.99L298.841 114.29L297.241 105.72L273.581 110.12L272.051 101.87L286.931 70.2L300.001 67.76L286.681 97.3L295.761 95.61L294.341 88L306.341 85.78L307.751 93.38L314.401 92.15L316.231 102.18Z" fill="#263238"/>
<path d="M232.08 154.75L232.49 156.93L219.75 159.3L216.48 141.74L228.87 139.44L229.27 141.62L219.39 143.46L220.39 148.85L229.2 147.21L229.6 149.35L220.79 151L221.85 156.66L232.08 154.75Z" fill="#263238"/>
<path d="M248.281 154L243.491 149.31C243.151 149.4 242.781 149.5 242.401 149.57L238.061 150.38L239.061 155.72L236.561 156.19L233.291 138.63L240.141 137.35C244.701 136.5 247.891 138.3 248.601 142.11C248.885 143.319 248.761 144.589 248.249 145.721C247.737 146.853 246.866 147.784 245.771 148.37L251.031 153.49L248.281 154ZM246.081 142.58C245.611 140.07 243.671 138.95 240.461 139.58L236.191 140.37L237.661 148.27L241.931 147.48C245.141 146.84 246.551 145.08 246.081 142.57V142.58Z" fill="#263238"/>
<path d="M266.51 150.6L261.72 145.91C261.38 146 261.01 146.1 260.63 146.17L256.29 146.97L257.29 152.32L254.79 152.78L251.52 135.23L258.37 133.95C262.93 133.1 266.12 134.95 266.83 138.71C267.12 139.924 267 141.2 266.488 142.338C265.976 143.476 265.101 144.412 264 145L269.26 150.12L266.51 150.6ZM264.31 139.18C263.84 136.67 261.9 135.55 258.69 136.18L254.42 136.97L255.89 144.87L260.16 144.08C263.37 143.45 264.78 141.68 264.31 139.18Z" fill="#263238"/>
<path d="M269.94 140.88C268.99 135.74 272.23 131.16 277.63 130.16C283.03 129.16 287.63 132.24 288.63 137.41C289.63 142.58 286.34 147.12 281 148.12C275.66 149.12 270.9 146 269.94 140.88ZM286.1 137.88C285.866 136.523 285.233 135.266 284.282 134.27C283.331 133.273 282.105 132.582 280.761 132.285C279.416 131.987 278.013 132.096 276.731 132.599C275.448 133.101 274.344 133.973 273.559 135.105C272.774 136.236 272.343 137.576 272.322 138.953C272.301 140.33 272.69 141.683 273.439 142.838C274.189 143.993 275.265 144.9 276.532 145.441C277.798 145.983 279.197 146.136 280.55 145.88C281.451 145.742 282.315 145.421 283.089 144.938C283.862 144.455 284.529 143.819 285.048 143.069C285.568 142.319 285.929 141.472 286.11 140.578C286.291 139.684 286.287 138.763 286.1 137.87V137.88Z" fill="#263238"/>
<path d="M305.811 143.29L301.001 138.6C300.651 138.69 300.281 138.78 299.901 138.85L295.561 139.66L296.561 145L294.051 145.47L290.781 127.91L297.631 126.64C302.201 125.79 305.381 127.58 306.091 131.4C306.378 132.61 306.256 133.88 305.744 135.013C305.232 136.145 304.359 137.076 303.261 137.66L308.521 142.78L305.811 143.29ZM303.601 131.86C303.141 129.36 301.191 128.24 297.981 128.86L293.721 129.65L295.191 137.55L299.451 136.76C302.661 136.14 304.071 134.37 303.601 131.86Z" fill="#263238"/>
<path d="M346.671 44.78C346.706 45.6743 346.475 46.5589 346.007 47.3217C345.539 48.0845 344.855 48.6911 344.042 49.0647C343.228 49.4383 342.322 49.5621 341.439 49.4203C340.555 49.2785 339.733 48.8776 339.078 48.2683C338.422 47.6591 337.962 46.8689 337.756 45.9979C337.55 45.127 337.607 44.2145 337.92 43.3761C338.234 42.5376 338.788 41.811 339.515 41.2883C340.241 40.7656 341.107 40.4704 342.001 40.44C343.195 40.3994 344.357 40.8332 345.232 41.6464C346.107 42.4597 346.624 43.5863 346.671 44.78Z" fill="#E0E0E0"/>
<path d="M346.67 44.78C346.62 44.78 346.61 44.38 346.39 43.71C346.071 42.7742 345.457 41.9672 344.64 41.41C343.98 40.9633 343.21 40.7077 342.414 40.6714C341.618 40.6352 340.828 40.8198 340.13 41.2048C339.433 41.5898 338.855 42.1602 338.462 42.8529C338.068 43.5457 337.874 44.3337 337.9 45.13C337.939 45.9232 338.197 46.6901 338.643 47.3466C339.09 48.0031 339.709 48.5237 340.433 48.8513C341.156 49.1789 341.956 49.3008 342.744 49.2035C343.532 49.1063 344.278 48.7936 344.9 48.3C345.673 47.6834 346.221 46.8294 346.46 45.87C346.63 45.18 346.61 44.78 346.66 44.78C346.71 44.78 346.66 44.88 346.71 45.07C346.729 45.351 346.712 45.6333 346.66 45.91C346.482 46.9531 345.94 47.8992 345.13 48.58C344.528 49.0928 343.807 49.4452 343.032 49.6043C342.257 49.7634 341.455 49.7241 340.7 49.49C339.764 49.1995 338.941 48.6261 338.345 47.8486C337.748 47.0712 337.407 46.1279 337.369 45.1487C337.33 44.1695 337.597 43.2025 338.13 42.3807C338.664 41.559 339.44 40.9229 340.35 40.56C341.084 40.2648 341.881 40.1603 342.666 40.2565C343.451 40.3527 344.199 40.6464 344.84 41.11C345.699 41.73 346.311 42.6329 346.57 43.66C346.646 43.93 346.683 44.2095 346.68 44.49C346.69 44.68 346.69 44.78 346.67 44.78Z" fill="#263238"/>
<path d="M344.149 41.64C344.373 42.8465 344.153 44.0933 343.529 45.15C343.064 46.2834 342.204 47.2103 341.109 47.76C341.823 46.8548 342.474 45.9027 343.059 44.91C343.494 43.845 343.858 42.7526 344.149 41.64Z" fill="#263238"/>
<path d="M345.001 46.43C344.871 46.51 344.271 45.32 342.911 44.62C342.05 44.2718 341.144 44.0495 340.221 43.96C340.221 43.89 340.521 43.75 341.071 43.71C341.792 43.6724 342.51 43.8277 343.151 44.16C343.791 44.4907 344.33 44.9882 344.711 45.6C345.001 46.07 345.101 46.41 345.001 46.43Z" fill="#263238"/>
<path d="M144.015 104.412L132.639 113.483L136.741 118.628L148.117 109.556L144.015 104.412Z" fill="#E0E0E0"/>
<path d="M148.11 109.57C148.11 109.57 147.65 109.07 146.91 108.19L143.91 104.54H144.18C141.26 106.92 137.27 110.14 132.85 113.66C132.85 113.99 132.85 113.22 132.85 113.3L132.92 113.39L133.06 113.56L133.33 113.89L133.86 114.56L134.86 115.87L136.86 118.37H136.51C139.79 115.78 142.64 113.58 144.69 112L147.11 110.16C147.405 109.919 147.715 109.699 148.04 109.5C147.805 109.746 147.551 109.973 147.28 110.18L144.98 112.1C142.98 113.74 140.16 116.1 136.82 118.76L136.63 118.91L136.47 118.72L134.47 116.23C134.12 115.8 133.77 115.37 133.42 114.92L132.89 114.26L132.62 113.92L132.48 113.75L132.42 113.67C132.42 113.75 132.5 112.98 132.42 113.31C136.84 109.78 140.87 106.61 143.84 104.31L143.99 104.2L144.11 104.34C145.38 105.98 146.39 107.34 147.11 108.22C147.473 108.647 147.807 109.098 148.11 109.57Z" fill="#263238"/>
<path d="M130.08 120C130.574 120.626 131.186 121.149 131.883 121.538C132.579 121.927 133.345 122.175 134.137 122.268C134.93 122.361 135.732 122.297 136.5 122.079C137.267 121.861 137.984 121.495 138.61 121L131 111.5C129.756 112.509 128.961 113.968 128.789 115.561C128.617 117.153 129.081 118.748 130.08 120Z" fill="#E0E0E0"/>
<path d="M130.08 120C129.896 119.849 129.738 119.67 129.61 119.47C129.234 118.915 128.956 118.3 128.79 117.65C128.523 116.648 128.523 115.593 128.79 114.59C129.12 113.289 129.86 112.128 130.9 111.28L131.09 111.13L131.24 111.32L135.04 116.05C136.38 117.73 137.65 119.34 138.81 120.81L138.96 121L138.77 121.15C137.713 121.974 136.42 122.44 135.08 122.48C134.037 122.506 133.004 122.265 132.08 121.78C131.487 121.471 130.953 121.062 130.5 120.57C130.331 120.403 130.19 120.211 130.08 120C130.714 120.605 131.432 121.117 132.21 121.52C133.219 121.986 134.338 122.163 135.442 122.03C136.545 121.898 137.59 121.462 138.46 120.77V121.11L134.66 116.38L130.89 111.62H131.22C130.35 112.316 129.691 113.24 129.317 114.289C128.942 115.338 128.867 116.471 129.1 117.56C129.313 118.415 129.643 119.236 130.08 120Z" fill="#263238"/>
<path d="M131.481 116.85C131.013 117.392 130.707 118.053 130.596 118.76C130.484 119.467 130.573 120.191 130.851 120.85" fill="#E0E0E0"/>
<path d="M130.85 120.89C130.588 120.605 130.403 120.258 130.312 119.882C130.221 119.506 130.227 119.113 130.33 118.74C130.52 117.44 131.4 116.74 131.48 116.85C131.56 116.96 131 117.7 130.84 118.85C130.68 120 131 120.82 130.85 120.89Z" fill="#263238"/>
<path d="M138.631 117.5C137.825 116.674 137.082 115.789 136.411 114.85C135.612 114.023 134.877 113.137 134.211 112.2C135.244 112.764 136.133 113.558 136.811 114.52C137.63 115.367 138.251 116.385 138.631 117.5Z" fill="#263238"/>
<path d="M140 116.44C139.198 115.613 138.459 114.727 137.79 113.79C136.989 112.962 136.253 112.072 135.59 111.13C137.558 112.419 139.094 114.269 140 116.44Z" fill="#263238"/>
<path d="M141.301 115.37C140.496 114.546 139.757 113.66 139.091 112.72C138.287 111.895 137.548 111.009 136.881 110.07C137.915 110.636 138.808 111.429 139.491 112.39C140.303 113.24 140.921 114.257 141.301 115.37Z" fill="#263238"/>
<path d="M142.631 114.31C141.829 113.483 141.09 112.597 140.421 111.66C139.623 110.828 138.888 109.939 138.221 109C139.247 109.573 140.135 110.365 140.821 111.32C141.641 112.168 142.26 113.19 142.631 114.31Z" fill="#263238"/>
<path d="M144 113.24C143.195 112.416 142.456 111.53 141.79 110.59C140.988 109.766 140.252 108.88 139.59 107.94C140.618 108.51 141.506 109.303 142.19 110.26C143.002 111.11 143.62 112.127 144 113.24Z" fill="#263238"/>
<path d="M145.301 112.18C144.499 111.353 143.76 110.467 143.091 109.53C142.293 108.698 141.558 107.809 140.891 106.87C141.917 107.443 142.805 108.235 143.491 109.19C144.311 110.038 144.93 111.06 145.301 112.18Z" fill="#263238"/>
<path d="M146.64 111.11C145.836 110.286 145.097 109.4 144.43 108.46C143.628 107.636 142.893 106.75 142.23 105.81C143.259 106.38 144.147 107.173 144.83 108.13C145.643 108.98 146.261 109.997 146.64 111.11Z" fill="#263238"/>
<path d="M154.5 81.9999C154.45 81.9999 154.44 81.5899 154.22 80.9199C153.903 79.9667 153.276 79.1467 152.44 78.5899C151.773 78.1348 150.992 77.8735 150.186 77.835C149.379 77.7965 148.577 77.9823 147.87 78.3718C147.162 78.7613 146.577 79.3392 146.178 80.0415C145.779 80.7437 145.582 81.5428 145.61 82.3499C145.645 83.1577 145.904 83.9397 146.357 84.6092C146.811 85.2786 147.441 85.8092 148.178 86.1419C148.914 86.4746 149.729 86.5963 150.531 86.4936C151.333 86.3908 152.091 86.0676 152.72 85.5599C153.505 84.9376 154.06 84.0723 154.3 83.0999C154.47 82.4099 154.45 81.9999 154.5 81.9999C154.55 81.9999 154.5 82.0999 154.55 82.2899C154.569 82.5743 154.552 82.8598 154.5 83.1399C154.337 84.2011 153.806 85.1711 153 85.8799C152.392 86.4004 151.662 86.7571 150.878 86.9163C150.094 87.0756 149.282 87.0321 148.52 86.7899C147.586 86.4874 146.767 85.9059 146.174 85.1237C145.581 84.3415 145.242 83.3963 145.203 82.4154C145.164 81.4346 145.426 80.4653 145.955 79.6382C146.484 78.8112 147.253 78.1661 148.16 77.7899C148.904 77.4936 149.711 77.3896 150.507 77.4875C151.302 77.5854 152.06 77.882 152.71 78.3499C153.577 78.9788 154.196 79.8918 154.46 80.9299C154.533 81.2043 154.573 81.4862 154.58 81.7699C154.547 81.9233 154.52 81.9999 154.5 81.9999Z" fill="#263238"/>
<path d="M124.8 93.08C124.63 92.7035 124.496 92.3117 124.4 91.91C124.247 91.4451 124.123 90.9708 124.03 90.49C123.91 89.94 123.74 89.31 123.65 88.6C123.373 86.9469 123.216 85.2759 123.18 83.6C123.102 79.4703 123.745 75.3586 125.08 71.45C125.63 69.8557 126.299 68.3047 127.08 66.81C127.38 66.16 127.73 65.61 128.01 65.12C128.249 64.6971 128.51 64.2866 128.79 63.89C129.006 63.5325 129.258 63.1975 129.54 62.89C129.63 62.95 128.63 64.41 127.41 66.98C126.689 68.4759 126.07 70.0195 125.56 71.6C124.948 73.5368 124.477 75.5153 124.15 77.52C123.848 79.5326 123.694 81.5648 123.69 83.6C123.698 85.2725 123.815 86.9427 124.04 88.6C124.4 91.36 124.9 93.05 124.8 93.08Z" fill="#263238"/>
<path d="M388.49 137C388.674 137.371 388.812 137.764 388.9 138.17C389.048 138.633 389.172 139.104 389.27 139.58C389.39 140.14 389.56 140.77 389.65 141.48C389.927 143.133 390.085 144.804 390.12 146.48C390.196 150.61 389.553 154.721 388.22 158.63C387.671 160.222 387.003 161.77 386.22 163.26C385.91 163.91 385.57 164.46 385.28 164.96C385.045 165.386 384.785 165.797 384.5 166.19C384.291 166.55 384.043 166.886 383.76 167.19C383.67 167.14 384.67 165.67 385.89 163.11C386.599 161.609 387.217 160.066 387.74 158.49C388.353 156.55 388.824 154.568 389.15 152.56C389.452 150.551 389.605 148.522 389.61 146.49C389.595 144.818 389.478 143.148 389.26 141.49C388.9 138.76 388.4 137.06 388.49 137Z" fill="#263238"/>
<path d="M395 138.76C395.182 139.133 395.319 139.525 395.41 139.93C395.558 140.393 395.682 140.864 395.78 141.34C395.9 141.9 396.06 142.53 396.16 143.24C396.437 144.893 396.595 146.564 396.63 148.24C396.65 150.298 396.51 152.354 396.21 154.39C395.878 156.427 395.383 158.433 394.73 160.39C394.179 161.984 393.511 163.535 392.73 165.03C392.42 165.67 392.08 166.22 391.79 166.72C391.55 167.161 391.286 167.588 391 168C390.791 168.36 390.543 168.696 390.26 169C390.17 168.95 391.17 167.48 392.39 164.92C393.103 163.42 393.721 161.877 394.24 160.3C394.853 158.36 395.324 156.378 395.65 154.37C395.952 152.361 396.106 150.332 396.11 148.3C396.096 146.628 395.979 144.958 395.76 143.3C395.4 140.48 394.9 138.78 395 138.76Z" fill="#263238"/>
<path d="M177.53 217.21C183.862 208.752 186.794 198.227 185.746 187.714C184.698 177.2 179.748 167.461 171.871 160.419C163.994 153.377 153.764 149.543 143.199 149.674C132.634 149.806 122.502 153.893 114.803 161.129C107.104 168.365 102.397 178.224 101.611 188.761C100.825 199.297 104.018 209.745 110.559 218.043C117.099 226.341 126.513 231.886 136.941 233.583C147.37 235.28 158.056 233.006 166.89 227.21L181.41 233.64L177.53 217.21Z" fill="#FAFAFA"/>
<path d="M130.92 189.52C131.043 187.928 131.654 186.413 132.67 185.18C133.614 183.932 134.925 183.012 136.42 182.55C137.698 182.181 139.062 182.247 140.298 182.737C141.535 183.228 142.573 184.115 143.25 185.26C143.826 184.114 144.751 183.18 145.893 182.594C147.034 182.008 148.333 181.8 149.6 182C151.125 182.294 152.522 183.052 153.6 184.17C154.748 185.281 155.533 186.714 155.85 188.28C156.214 190.286 155.919 192.355 155.01 194.18C153.945 196.04 152.45 197.617 150.65 198.78C147.74 200.78 143.91 203.28 143.91 203.28C143.91 203.28 140.4 200.97 137.28 199.33C135.353 198.389 133.68 197 132.4 195.28C131.302 193.568 130.783 191.549 130.92 189.52Z" fill="#EF7127"/>
<path d="M143.681 149.83C143.435 149.808 143.187 149.808 142.941 149.83L140.791 149.9C140.311 149.9 139.791 149.9 139.201 149.97L137.301 150.23L135.081 150.55L132.601 151.17C128.339 152.244 124.285 154.014 120.601 156.41C115.136 159.885 110.54 164.565 107.163 170.091C103.787 175.616 101.72 181.842 101.121 188.29C100.955 190.225 100.915 192.169 101.001 194.11C101.071 195.11 101.001 196.11 101.191 197.11C101.381 198.11 101.491 199.11 101.651 200.11C102.395 204.229 103.743 208.215 105.651 211.94C107.693 215.84 110.294 219.422 113.371 222.57C116.646 225.794 120.401 228.493 124.501 230.57C128.742 232.749 133.337 234.157 138.071 234.73C139.269 234.918 140.478 235.022 141.691 235.04C142.908 235.133 144.13 235.157 145.351 235.11C147.816 235.008 150.268 234.697 152.681 234.18C157.888 233.052 162.838 230.956 167.271 228L166.831 228.05L181.691 234.05L182.571 234.41L182.321 233.49L178.001 217.55L177.931 217.94C181.96 212.596 184.673 206.378 185.851 199.79C186.423 196.725 186.618 193.602 186.431 190.49C186.401 188.985 186.257 187.484 186.001 186C185.891 185.27 185.771 184.55 185.661 183.83C185.551 183.11 185.311 182.42 185.141 181.72C182.659 171.956 176.786 163.392 168.571 157.56C165.535 155.38 162.214 153.627 158.701 152.35L156.481 151.56L154.371 151.02L152.441 150.54C151.821 150.42 151.221 150.36 150.661 150.27C149.541 150.13 148.551 149.94 147.661 149.89L145.471 149.82H144.141C143.992 149.798 143.84 149.798 143.691 149.82C143.839 149.853 143.989 149.873 144.141 149.88L145.471 149.98L147.631 150.13C148.491 150.2 149.471 150.41 150.581 150.58C158.643 151.972 166.127 155.674 172.125 161.237C178.123 166.8 182.377 173.986 184.371 181.92C184.531 182.61 184.741 183.29 184.871 183.99C185.001 184.69 185.081 185.41 185.191 186.12C185.432 187.571 185.563 189.039 185.581 190.51C185.751 193.563 185.55 196.626 184.981 199.63C183.804 206.079 181.125 212.159 177.161 217.38L177.031 217.56L177.091 217.78C178.491 222.91 179.931 228.22 181.421 233.67L182.051 233.11L167.201 227.11L166.971 227.02L166.751 227.15C162.411 230.018 157.576 232.053 152.491 233.15C150.134 233.656 147.739 233.96 145.331 234.06C144.137 234.102 142.942 234.078 141.751 233.99C140.569 233.97 139.389 233.87 138.221 233.69C133.593 233.134 129.1 231.763 124.951 229.64C120.923 227.624 117.23 225 114.001 221.86C110.984 218.78 108.428 215.281 106.411 211.47C104.52 207.829 103.172 203.931 102.411 199.9C102.261 198.9 102.111 197.9 101.961 196.97C101.811 196.04 101.831 194.97 101.761 194.05C101.399 186.72 102.97 179.424 106.317 172.893C109.664 166.363 114.669 160.826 120.831 156.84C124.457 154.437 128.449 152.637 132.651 151.51L135.101 150.86L137.301 150.5L139.181 150.19C139.761 150.12 140.291 150.11 140.761 150.07L142.911 149.91C143.169 149.9 143.426 149.873 143.681 149.83Z" fill="#263238"/>
</svg>
