<svg width="51" height="50" viewBox="0 0 51 50" fill="none" xmlns="http://www.w3.org/2000/svg">
<circle cx="25.5" cy="25" r="24.5" fill="white" stroke="#ECEFF1"/>
<path d="M34.875 15.625H16.125V34.375H34.875V15.625Z" fill="#ECEFF1"/>
<path d="M25.5 26.9719L34.875 34.375V19.7594L25.5 26.9719Z" fill="#CFD8DC"/>
<path d="M35.6562 15.625H34.875L25.5 23.0281L16.125 15.625H15.3438C14.05 15.625 13 16.675 13 17.9688V32.0312C13 33.325 14.05 34.375 15.3438 34.375H16.125V19.7594L25.5 26.9703L34.875 19.7578V34.375H35.6562C36.95 34.375 38 33.325 38 32.0312V17.9688C38 16.675 36.95 15.625 35.6562 15.625Z" fill="#F44336"/>
</svg>
