<svg width="30" height="30" viewBox="0 0 30 30" fill="none" xmlns="http://www.w3.org/2000/svg">
<circle cx="15" cy="15" r="15" fill="#00ACEF"/>
<g clip-path="url(#clip0_532_394)">
<path d="M22.4965 20.9999V20.9993H22.4999V16.0482C22.4999 13.6261 21.9784 11.7603 19.1468 11.7603C17.7855 11.7603 16.872 12.5073 16.4991 13.2154H16.4597V11.9864H13.7749V20.9993H16.5705V16.5364C16.5705 15.3614 16.7933 14.2251 18.2485 14.2251C19.6823 14.2251 19.7037 15.5661 19.7037 16.6118V20.9999H22.4965Z" fill="#005BAB"/>
<path d="M9.22266 11.9871H12.0217V21H9.22266V11.9871Z" fill="#005BAB"/>
<path d="M10.6211 7.5C9.72619 7.5 9 8.22619 9 9.12113C9 10.0161 9.72619 10.7574 10.6211 10.7574C11.5161 10.7574 12.2422 10.0161 12.2422 9.12113C12.2417 8.22619 11.5155 7.5 10.6211 7.5V7.5Z" fill="#005BAB"/>
</g>
<defs>
<clipPath id="clip0_532_394">
<rect width="13.5" height="13.5" fill="white" transform="translate(9 7.5)"/>
</clipPath>
</defs>
</svg>
