<svg width="13" height="13" viewBox="0 0 13 13" fill="none" xmlns="http://www.w3.org/2000/svg">
<g clip-path="url(#clip0_1222_12476)">
<path d="M12.4952 12.2001V12.1996H12.4981V7.9086C12.4981 5.80942 12.0462 4.19238 9.59215 4.19238C8.4124 4.19238 7.6207 4.83978 7.29749 5.45355H7.26336V4.38836H4.93652V12.1996H7.3594V8.33175C7.3594 7.31336 7.55245 6.32861 8.81362 6.32861C10.0563 6.32861 10.0748 7.49081 10.0748 8.39708V12.2001H12.4952Z" fill="white"/>
<path d="M0.993164 4.38867H3.41896V12.1999H0.993164V4.38867Z" fill="white"/>
<path d="M2.20478 0.5C1.42917 0.5 0.799805 1.12936 0.799805 1.90498C0.799805 2.68059 1.42917 3.32311 2.20478 3.32311C2.98039 3.32311 3.60976 2.68059 3.60976 1.90498C3.60927 1.12936 2.9799 0.5 2.20478 0.5V0.5Z" fill="white"/>
</g>
<defs>
<clipPath id="clip0_1222_12476">
<rect width="11.7" height="11.7" fill="white" transform="translate(0.799805 0.5)"/>
</clipPath>
</defs>
</svg>
