<svg width="40" height="40" viewBox="0 0 40 40" fill="none" xmlns="http://www.w3.org/2000/svg">
<circle cx="20" cy="20" r="20" fill="#0A66C2"/>
<g clip-path="url(#clip0_42_292)">
<path d="M29.9955 27.9999V27.9992H30V21.3977C30 18.1682 29.3047 15.6804 25.5292 15.6804C23.7142 15.6804 22.4962 16.6764 21.999 17.6207H21.9465V15.9819H18.3667V27.9992H22.0942V22.0487C22.0942 20.4819 22.3912 18.9669 24.3315 18.9669C26.2432 18.9669 26.2717 20.7549 26.2717 22.1492V27.9999H29.9955Z" fill="white"/>
<path d="M12.2969 15.9827H16.0289V27.9999H12.2969V15.9827Z" fill="white"/>
<path d="M14.1615 10C12.9683 10 12 10.9683 12 12.1615C12 13.3548 12.9683 14.3433 14.1615 14.3433C15.3547 14.3433 16.323 13.3548 16.323 12.1615C16.3222 10.9683 15.354 10 14.1615 10V10Z" fill="white"/>
</g>
<defs>
<clipPath id="clip0_42_292">
<rect width="18" height="18" fill="white" transform="translate(12 10)"/>
</clipPath>
</defs>
</svg>
