<svg width="50" height="50" viewBox="0 0 50 50" fill="none" xmlns="http://www.w3.org/2000/svg">
<circle cx="25" cy="25" r="25" fill="#DBDBDB"/>
<g clip-path="url(#clip0_86_91)">
<path d="M37.4969 35V34.9991H37.5025V26.7472C37.5025 22.7103 36.6335 19.6006 31.9141 19.6006C29.6453 19.6006 28.1228 20.8456 27.5013 22.0259H27.4356V19.9775H22.9609V34.9991H27.6203V27.5609C27.6203 25.6025 27.9916 23.7087 30.4169 23.7087C32.8066 23.7087 32.8422 25.9437 32.8422 27.6865V35H37.4969Z" fill="white"/>
<path d="M15.3711 19.9785H20.0361V35.0001H15.3711V19.9785Z" fill="white"/>
<path d="M17.7019 12.5C16.2103 12.5 15 13.7103 15 15.2019C15 16.6934 16.2103 17.9291 17.7019 17.9291C19.1934 17.9291 20.4037 16.6934 20.4037 15.2019C20.4028 13.7103 19.1925 12.5 17.7019 12.5V12.5Z" fill="white"/>
</g>
<defs>
<clipPath id="clip0_86_91">
<rect width="22.5" height="22.5" fill="white" transform="translate(15 12.5)"/>
</clipPath>
</defs>
</svg>
