<?xml version="1.0" encoding="utf-8"?>
<!-- Generator: Adobe Illustrator 27.4.0, SVG Export Plug-In . SVG Version: 6.00 Build 0)  -->
<svg version="1.1" id="Layer_1" xmlns="http://www.w3.org/2000/svg" xmlns:xlink="http://www.w3.org/1999/xlink" x="0px" y="0px"
	 viewBox="0 0 233 45" style="enable-background:new 0 0 233 45;" xml:space="preserve">
<style type="text/css">
	.st0{fill:#7C92C5;}
	.st1{fill:#00549E;}
</style>
<g>
	<g>
		<polygon class="st0" points="14,1 3,1 3,4.5 6.6,4.5 6.6,18.8 10.5,18.8 10.5,4.4 14,4.4 		"/>
		<polygon class="st0" points="42.5,1 38.6,1 38.6,7.8 35,7.8 35,1 31.1,1 31.1,18.8 35,18.8 35,11.3 38.6,11.3 38.6,18.8 
			42.5,18.8 		"/>
		<polygon class="st0" points="69.4,1 61,1 61,18.8 69.9,18.8 69.9,15.3 64.9,15.3 64.9,11.4 68.7,11.4 68.7,8.1 64.9,8.1 64.9,4.4 
			69.4,4.4 		"/>
		<g>
			<path class="st0" d="M114.5,1H109v17.8h6.4c1.3,0,2.5-0.4,3.4-1.3c0.9-0.9,1.4-1.9,1.4-3.2c0-1.1-0.2-2-0.6-2.7
				c-0.4-0.7-1.1-1.3-2.2-1.8c0.9-0.5,1.5-1.1,1.9-1.7c0.4-0.7,0.6-1.5,0.6-2.6c0-1.3-0.5-2.4-1.5-3.2C117.3,1.4,116,1,114.5,1
				 M112.9,8.5V3.9h0.5c1.6,0,2.4,0.8,2.4,2.4c0,0.7-0.2,1.2-0.6,1.7c-0.4,0.4-0.9,0.6-1.6,0.6H112.9z M112.9,15.9v-4.7h0.8
				c1.6,0,2.4,0.8,2.4,2.4c0,0.7-0.2,1.3-0.5,1.7c-0.4,0.4-0.9,0.6-1.5,0.6L112.9,15.9z"/>
			<polygon class="st0" points="146.4,1 138.1,1 138.1,18.8 147,18.8 147,15.3 141.9,15.3 141.9,11.4 145.8,11.4 145.8,8.1 
				141.9,8.1 141.9,4.4 146.4,4.4 			"/>
			<path class="st0" d="M169.8,1h-5v17.8h3.9V10h0.1l3.1,8.8h3.9l-3.2-8.1c1-0.6,1.8-1.2,2.3-1.9c0.5-0.7,0.7-1.6,0.7-2.7
				c0-0.9-0.2-1.8-0.6-2.6c-0.4-0.8-1.1-1.5-2.1-1.9C171.8,1.2,170.8,1,169.8,1 M168.6,9V3.9h0.8c1.4,0,2.1,0.9,2.1,2.5
				c0,0.8-0.2,1.4-0.5,1.9C170.7,8.8,169.9,9,168.6,9"/>
			<polygon class="st0" points="204.4,1 200.6,1 198.4,6.7 196.1,1 191.9,1 196.5,11 196.5,18.8 200.4,18.8 200.4,10.9 			"/>
			<polygon class="st0" points="225.5,1 221.6,1 221.6,18.8 230,18.8 230,15.3 225.5,15.3 			"/>
			<rect x="4.4" y="25.8" class="st1" width="3.9" height="17.8"/>
			<polygon class="st1" points="39.8,43.6 35.8,43.6 31.2,32.4 31.1,32.4 31.1,43.6 27.4,43.6 27.4,25.8 31.6,25.8 36.1,36.9 
				36.2,36.9 36.2,25.8 39.8,25.8 			"/>
			<path class="st1" d="M65.9,30.5c-1-1.2-1.7-1.4-2.6-1.4c-0.4,0-0.8,0.1-1.1,0.4c-0.3,0.3-0.5,0.6-0.5,0.9c0,0.6,0.5,1.4,1.6,2.2
				c1.1,0.9,1.9,1.5,2.3,2c0.5,0.5,0.8,1.1,1.1,1.8c0.3,0.7,0.4,1.4,0.4,2.2c0,1.6-0.5,2.8-1.5,3.9c-1,1-2.3,1.5-3.9,1.5
				c-1.3,0-2.6-0.5-3.8-1.4v-4.2c1.2,1.3,2.4,1.9,3.6,1.9c0.5,0,1-0.2,1.3-0.5c0.4-0.3,0.5-0.7,0.5-1.1c0-0.6-0.5-1.3-1.4-2.1
				c-1.5-1.3-2.4-2.2-2.9-2.8c-0.5-0.6-0.8-1.2-1-1.8c-0.2-0.6-0.3-1.3-0.3-1.9c0-1.4,0.5-2.5,1.4-3.4c1-0.9,2.2-1.3,3.7-1.3
				c1.1,0,2.3,0.3,3.4,1L65.9,30.5z"/>
			<polygon class="st1" points="94.8,29.3 91.4,29.3 91.4,43.7 87.5,43.7 87.5,29.3 83.9,29.3 83.9,25.8 94.8,25.8 			"/>
			<rect x="113" y="25.8" class="st1" width="3.9" height="17.8"/>
			<polygon class="st1" points="145.6,29.3 142.1,29.3 142.1,43.7 138.2,43.7 138.2,29.3 134.7,29.3 134.7,25.8 145.6,25.8 			"/>
			<path class="st1" d="M174.5,38.6c0,1.7-0.5,3-1.5,3.9c-1,1-2.4,1.4-4.2,1.4c-1.9,0-3.3-0.5-4.3-1.5c-1-1-1.5-2.4-1.5-4.2V25.8
				h3.9v11.9c0,0.8,0.2,1.5,0.5,1.9c0.3,0.4,0.8,0.7,1.4,0.7c0.6,0,1-0.2,1.3-0.7c0.3-0.4,0.5-1,0.5-1.8V25.8h3.9V38.6z"/>
			<polygon class="st1" points="203.2,29.3 199.7,29.3 199.7,43.7 195.8,43.7 195.8,29.3 192.3,29.3 192.3,25.8 203.2,25.8 			"/>
			<polygon class="st1" points="229.6,43.6 220.7,43.6 220.7,25.8 229.1,25.8 229.1,29.3 224.6,29.3 224.6,32.9 228.4,32.9 
				228.4,36.2 224.6,36.2 224.6,40.2 229.6,40.2 			"/>
		</g>
	</g>
</g>
</svg>
