<svg width="100" height="100" viewBox="0 0 100 100" fill="none" xmlns="http://www.w3.org/2000/svg">
<circle cx="50" cy="50" r="50" fill="#D9D9D9"/>
<path d="M35.3745 44.32H36.1905V54.352C36.1905 54.736 36.2705 55.0027 36.4305 55.152C36.5905 55.2907 36.7985 55.36 37.0545 55.36C37.2252 55.36 37.4012 55.344 37.5825 55.312C37.7638 55.28 37.9238 55.2373 38.0625 55.184L38.2225 55.84C38.0412 55.904 37.8172 55.9627 37.5505 56.016C37.2838 56.0693 37.0545 56.096 36.8625 56.096C36.4145 56.096 36.0518 55.9627 35.7745 55.696C35.5078 55.4187 35.3745 55.0507 35.3745 54.592V44.32ZM42.9391 56.16C42.3525 56.16 41.8085 56.048 41.3071 55.824C40.8165 55.6 40.3898 55.2907 40.0271 54.896C39.6645 54.4907 39.3818 54.0267 39.1791 53.504C38.9765 52.9813 38.8751 52.432 38.8751 51.856C38.8751 51.2693 38.9765 50.72 39.1791 50.208C39.3818 49.6853 39.6645 49.2267 40.0271 48.832C40.4005 48.4267 40.8325 48.112 41.3231 47.888C41.8245 47.6533 42.3631 47.536 42.9391 47.536C43.5151 47.536 44.0485 47.6533 44.5391 47.888C45.0298 48.112 45.4618 48.4267 45.8351 48.832C46.2085 49.2267 46.4965 49.6853 46.6991 50.208C46.9018 50.72 47.0031 51.2693 47.0031 51.856C47.0031 52.432 46.9018 52.9813 46.6991 53.504C46.4965 54.0267 46.2085 54.4907 45.8351 54.896C45.4725 55.2907 45.0405 55.6 44.5391 55.824C44.0485 56.048 43.5151 56.16 42.9391 56.16ZM39.6751 51.888C39.6751 52.5387 39.8191 53.136 40.1071 53.68C40.4058 54.2133 40.8005 54.64 41.2911 54.96C41.7818 55.28 42.3258 55.44 42.9231 55.44C43.5205 55.44 44.0645 55.28 44.5551 54.96C45.0565 54.6293 45.4511 54.192 45.7391 53.648C46.0378 53.0933 46.1871 52.4907 46.1871 51.84C46.1871 51.1893 46.0378 50.592 45.7391 50.048C45.4511 49.504 45.0565 49.072 44.5551 48.752C44.0645 48.4213 43.5258 48.256 42.9391 48.256C42.3418 48.256 41.7978 48.4213 41.3071 48.752C40.8165 49.0827 40.4218 49.52 40.1231 50.064C39.8245 50.608 39.6751 51.216 39.6751 51.888ZM52.2799 56.128C51.7145 56.128 51.1865 56.0107 50.6959 55.776C50.2159 55.5413 49.7999 55.2213 49.4479 54.816C49.1065 54.4 48.8345 53.9413 48.6319 53.44C48.4399 52.928 48.3439 52.4 48.3439 51.856C48.3439 51.2907 48.4345 50.7467 48.6159 50.224C48.8079 49.7013 49.0745 49.2427 49.4159 48.848C49.7679 48.4427 50.1785 48.1227 50.6479 47.888C51.1172 47.6533 51.6399 47.536 52.2159 47.536C52.9412 47.536 53.5705 47.728 54.1039 48.112C54.6479 48.4853 55.1065 48.944 55.4799 49.488V47.68H56.2159V56.16C56.2159 56.9067 56.0345 57.536 55.6719 58.048C55.3092 58.56 54.8292 58.9387 54.2319 59.184C53.6345 59.44 52.9892 59.568 52.2959 59.568C51.3252 59.568 50.5519 59.392 49.9759 59.04C49.4105 58.688 48.9519 58.224 48.5999 57.648L49.1439 57.28C49.4745 57.8347 49.9225 58.2453 50.4879 58.512C51.0532 58.7787 51.6559 58.912 52.2959 58.912C52.8612 58.912 53.3785 58.8053 53.8479 58.592C54.3279 58.3893 54.7065 58.08 54.9839 57.664C55.2719 57.2587 55.4159 56.7573 55.4159 56.16V54.336C55.0852 54.88 54.6319 55.3173 54.0559 55.648C53.4905 55.968 52.8985 56.128 52.2799 56.128ZM52.4719 55.44C52.8239 55.44 53.1652 55.376 53.4959 55.248C53.8265 55.12 54.1305 54.9493 54.4079 54.736C54.6852 54.512 54.9145 54.2667 55.0959 54C55.2772 53.7333 55.3839 53.4667 55.4159 53.2V50.464C55.2559 50.0373 55.0105 49.6587 54.6799 49.328C54.3599 48.9867 53.9972 48.7253 53.5919 48.544C53.1865 48.352 52.7705 48.256 52.3439 48.256C51.8425 48.256 51.3945 48.3627 50.9999 48.576C50.6052 48.7893 50.2692 49.072 49.9919 49.424C49.7252 49.7653 49.5172 50.1547 49.3679 50.592C49.2292 51.0187 49.1599 51.4453 49.1599 51.872C49.1599 52.352 49.2452 52.8053 49.4159 53.232C49.5865 53.6587 49.8212 54.0427 50.1199 54.384C50.4292 54.7147 50.7812 54.976 51.1759 55.168C51.5812 55.3493 52.0132 55.44 52.4719 55.44ZM62.2048 56.16C61.6181 56.16 61.0741 56.048 60.5728 55.824C60.0821 55.6 59.6554 55.2907 59.2928 54.896C58.9301 54.4907 58.6474 54.0267 58.4448 53.504C58.2421 52.9813 58.1408 52.432 58.1408 51.856C58.1408 51.2693 58.2421 50.72 58.4448 50.208C58.6474 49.6853 58.9301 49.2267 59.2928 48.832C59.6661 48.4267 60.0981 48.112 60.5888 47.888C61.0901 47.6533 61.6288 47.536 62.2048 47.536C62.7808 47.536 63.3141 47.6533 63.8048 47.888C64.2954 48.112 64.7274 48.4267 65.1008 48.832C65.4741 49.2267 65.7621 49.6853 65.9648 50.208C66.1674 50.72 66.2688 51.2693 66.2688 51.856C66.2688 52.432 66.1674 52.9813 65.9648 53.504C65.7621 54.0267 65.4741 54.4907 65.1008 54.896C64.7381 55.2907 64.3061 55.6 63.8048 55.824C63.3141 56.048 62.7808 56.16 62.2048 56.16ZM58.9408 51.888C58.9408 52.5387 59.0848 53.136 59.3728 53.68C59.6714 54.2133 60.0661 54.64 60.5568 54.96C61.0474 55.28 61.5914 55.44 62.1888 55.44C62.7861 55.44 63.3301 55.28 63.8208 54.96C64.3221 54.6293 64.7168 54.192 65.0048 53.648C65.3034 53.0933 65.4528 52.4907 65.4528 51.84C65.4528 51.1893 65.3034 50.592 65.0048 50.048C64.7168 49.504 64.3221 49.072 63.8208 48.752C63.3301 48.4213 62.7914 48.256 62.2048 48.256C61.6074 48.256 61.0634 48.4213 60.5728 48.752C60.0821 49.0827 59.6874 49.52 59.3888 50.064C59.0901 50.608 58.9408 51.216 58.9408 51.888Z" fill="black"/>
</svg>
