<?xml version="1.0" encoding="utf-8"?>
<!-- Generator: Adobe Illustrator 27.2.0, SVG Export Plug-In . SVG Version: 6.00 Build 0)  -->
<svg version="1.1" id="Layer_1" xmlns="http://www.w3.org/2000/svg" xmlns:xlink="http://www.w3.org/1999/xlink" x="0px" y="0px"
	 viewBox="0 0 95.7 95.7" style="enable-background:new 0 0 95.7 95.7;" xml:space="preserve">
<style type="text/css">
	.st0{fill:none;stroke:#4391CE;stroke-width:3;stroke-linejoin:round;stroke-miterlimit:10;}
	.st1{fill:none;stroke:#4391CE;stroke-width:3;stroke-miterlimit:10;}
</style>
<g>
	<g>
		<g>
			<path class="st0" d="M26.8,73.6V60c0-7.5,5.4-10.3,12.4-10.3l8.6,9.5l8-9.5c7,0,13.1,2.8,13.1,10.3v13.7"/>
			<path class="st1" d="M58.1,31.3c0,5.7-4.6,10.4-10.3,10.4c-5.6,0-10.3-4.7-10.3-10.4v-3.9c0-5.7,4.6-10.4,10.3-10.4
				c5.6,0,10.3,4.7,10.3,10.4V31.3z"/>
		</g>
		<path class="st1" d="M79.5,16.2C97,33.7,97,62,79.5,79.5C62,97,33.7,97,16.2,79.5C-1.3,62-1.3,33.7,16.2,16.2
			C33.7-1.3,62-1.3,79.5,16.2z"/>
	</g>
</g>
</svg>
