<svg width="16" height="16" viewBox="0 0 16 16" fill="none" xmlns="http://www.w3.org/2000/svg">
<g clip-path="url(#clip0_267_3497)">
<path d="M9.19783 0.100745L3.3293 4.50039H0.763718C0.349759 4.50039 0 4.85057 0 5.26393V10.7366C0 11.15 0.338039 11.5002 0.763718 11.5002H3.3293L9.19783 15.8988C9.52892 16.147 10.002 15.9102 9.99963 15.4966C9.99793 15.1976 9.99863 5.49827 9.99863 0.499115C9.99863 0.106106 9.53591 -0.152717 9.19783 0.100745ZM8.99957 1.49895V14.4987L3.99731 10.7513V5.24831L8.99957 1.49895ZM12.0271 3.54645C11.452 3.47772 11.2603 4.44615 11.9363 4.54433C13.7024 4.80085 14.9999 6.26304 14.9999 7.99784C14.9999 9.73269 13.7034 11.2061 11.9363 11.4562C11.2785 11.5215 11.4245 12.5664 12.0769 12.4453C14.3196 12.1279 16 10.2323 16 7.99784C16 5.49667 14.0056 3.76974 12.0271 3.54645ZM1.00006 5.49924H2.99725L2.99914 10.4994H1.00006V5.49924ZM11.8445 6.86017C12.3466 7.03435 12.6707 7.48724 12.6707 7.99784C12.6707 8.50861 12.3429 8.96811 11.8406 9.14218C11.1932 9.3415 11.5574 10.325 12.1726 10.0864C13.0658 9.77688 13.6708 8.93731 13.6708 7.99784C13.6708 7.04485 13.0576 6.21903 12.1648 5.90933C11.4891 5.72831 11.2444 6.62472 11.8445 6.86017Z" fill="#00ACEF"/>
</g>
<defs>
<clipPath id="clip0_267_3497">
<rect width="16" height="16" fill="white"/>
</clipPath>
</defs>
</svg>
