<svg width="18" height="18" viewBox="0 0 18 18" fill="none" xmlns="http://www.w3.org/2000/svg">
<g clip-path="url(#clip0_1420_2829)">
<path fill-rule="evenodd" clip-rule="evenodd" d="M13.5 18H4.5C3.30654 17.9999 2.16198 17.5258 1.31808 16.6819C0.474175 15.838 5.22104e-05 14.6935 0 13.5L0 4.5C5.22104e-05 3.30654 0.474175 2.16198 1.31808 1.31808C2.16198 0.474175 3.30654 5.22104e-05 4.5 0L13.5 0C14.6935 0 15.8381 0.474106 16.682 1.31802C17.5259 2.16193 18 3.30653 18 4.5V13.5C18 14.6935 17.5259 15.8381 16.682 16.682C15.8381 17.5259 14.6935 18 13.5 18Z" fill="#2D0F1E"/>
<path fill-rule="evenodd" clip-rule="evenodd" d="M8.4375 5.0625H13.5C14.1489 5.06246 14.773 4.81322 15.2435 4.36624C15.7139 3.91926 15.9947 3.3087 16.0279 2.66063C16.0612 2.01256 15.8442 1.37648 15.4219 0.883762C14.9996 0.391041 14.4043 0.0793074 13.7587 0.0129375C13.6727 0.00815625 13.5875 0 13.5 0H4.5C3.30654 5.22104e-05 2.16198 0.474175 1.31808 1.31808C0.474175 2.16198 5.22104e-05 3.30654 0 4.5L0 13.5C5.22123e-05 11.2623 0.889017 9.11617 2.47134 7.53384C4.05367 5.95152 6.19975 5.06255 8.4375 5.0625Z" fill="#501432"/>
<path fill-rule="evenodd" clip-rule="evenodd" d="M13.5 9C12.61 9 11.74 9.26392 10.9999 9.75839C10.2599 10.2529 9.68314 10.9557 9.34254 11.7779C9.00195 12.6002 8.91283 13.505 9.08647 14.3779C9.2601 15.2508 9.68868 16.0526 10.318 16.682C10.9474 17.3113 11.7492 17.7399 12.6221 17.9135C13.495 18.0872 14.3998 17.9981 15.2221 17.6575C16.0443 17.3169 16.7471 16.7401 17.2416 16.0001C17.7361 15.26 18 14.39 18 13.5V4.5C18 5.69347 17.5259 6.83807 16.682 7.68198C15.8381 8.52589 14.6935 9 13.5 9Z" fill="black"/>
<path fill-rule="evenodd" clip-rule="evenodd" d="M9.56211 3.9375C9.56209 3.86363 9.57662 3.79047 9.60488 3.72221C9.63314 3.65396 9.67458 3.59194 9.72681 3.5397C9.77905 3.48747 9.84107 3.44603 9.90933 3.41777C9.97758 3.38951 10.0507 3.37498 10.1246 3.375H11.314C11.4441 3.37503 11.5701 3.42013 11.6707 3.50264C11.7713 3.58515 11.8401 3.69996 11.8656 3.82753C11.9673 4.33493 12.2419 4.79136 12.6424 5.1191C13.0429 5.44684 13.5446 5.62562 14.0621 5.625C14.136 5.62498 14.2091 5.63951 14.2774 5.66777C14.3457 5.69603 14.4077 5.73747 14.4599 5.7897C14.5121 5.84194 14.5536 5.90396 14.5818 5.97221C14.6101 6.04047 14.6246 6.11363 14.6246 6.1875V7.3125C14.6246 7.38637 14.6101 7.45953 14.5818 7.52779C14.5536 7.59604 14.5121 7.65806 14.4599 7.7103C14.4077 7.76253 14.3457 7.80397 14.2774 7.83223C14.2091 7.86049 14.136 7.87502 14.0621 7.875C13.2721 7.87616 12.4958 7.66821 11.8121 7.27228V11.8125C11.8121 12.5912 11.5811 13.3524 11.1485 13.9999C10.7158 14.6473 10.1009 15.152 9.38146 15.4499C8.66202 15.7479 7.87037 15.8259 7.10663 15.6739C6.34288 15.522 5.64134 15.147 5.09071 14.5964C4.54008 14.0458 4.16509 13.3442 4.01317 12.5805C3.86124 11.8167 3.93919 11.0251 4.23717 10.3057C4.53515 9.58621 5.03978 8.97129 5.68723 8.53864C6.33469 8.10599 7.0959 7.87504 7.87461 7.875C7.94849 7.87498 8.02164 7.88951 8.0899 7.91777C8.15815 7.94603 8.22017 7.98747 8.27241 8.0397C8.32465 8.09194 8.36608 8.15396 8.39434 8.22221C8.4226 8.29047 8.43713 8.36363 8.43711 8.4375V9.5625C8.43713 9.63637 8.4226 9.70953 8.39434 9.77779C8.36608 9.84604 8.32465 9.90806 8.27241 9.9603C8.22017 10.0125 8.15815 10.054 8.0899 10.0822C8.02164 10.1105 7.94849 10.125 7.87461 10.125C7.54081 10.125 7.21451 10.2239 6.93695 10.4094C6.6594 10.5948 6.44307 10.8584 6.31532 11.1667C6.18757 11.4751 6.15414 11.8145 6.21925 12.1418C6.28436 12.4692 6.4451 12.77 6.68113 13.006C6.91716 13.242 7.21788 13.4027 7.54526 13.4679C7.87265 13.533 8.21199 13.4995 8.52037 13.3718C8.82875 13.244 9.09232 13.0277 9.27775 12.7502C9.46318 12.4726 9.56214 12.1463 9.56211 11.8125V3.9375Z" fill="#FE2C55"/>
<path fill-rule="evenodd" clip-rule="evenodd" d="M8.99961 3.375C8.99959 3.30113 9.01412 3.22797 9.04238 3.15971C9.07064 3.09146 9.11208 3.02944 9.16431 2.9772C9.21655 2.92497 9.27857 2.88353 9.34683 2.85527C9.41508 2.82701 9.48824 2.81248 9.56211 2.8125H10.7515C10.8816 2.81253 11.0076 2.85763 11.1082 2.94014C11.2088 3.02265 11.2776 3.13746 11.3031 3.26503C11.4048 3.77243 11.6794 4.22886 12.0799 4.5566C12.4804 4.88434 12.9821 5.06312 13.4996 5.0625C13.5735 5.06248 13.6466 5.07701 13.7149 5.10527C13.7832 5.13353 13.8452 5.17497 13.8974 5.2272C13.9496 5.27944 13.9911 5.34146 14.0193 5.40971C14.0476 5.47797 14.0621 5.55113 14.0621 5.625V6.75C14.0621 6.82387 14.0476 6.89703 14.0193 6.96529C13.9911 7.03354 13.9496 7.09556 13.8974 7.1478C13.8452 7.20003 13.7832 7.24147 13.7149 7.26973C13.6466 7.29799 13.5735 7.31252 13.4996 7.3125C12.7096 7.31366 11.9333 7.10571 11.2496 6.70978V11.25C11.2496 12.0287 11.0186 12.7899 10.586 13.4374C10.1533 14.0848 9.5384 14.5895 8.81896 14.8874C8.09952 15.1854 7.30787 15.2634 6.54413 15.1114C5.78038 14.9595 5.07884 14.5845 4.52821 14.0339C3.97758 13.4833 3.60259 12.7817 3.45067 12.018C3.29874 11.2542 3.37669 10.4626 3.67467 9.74315C3.97265 9.02371 4.47728 8.40879 5.12473 7.97614C5.77219 7.54349 6.5334 7.31254 7.31211 7.3125C7.38599 7.31248 7.45914 7.32701 7.5274 7.35527C7.59565 7.38353 7.65767 7.42497 7.70991 7.4772C7.76215 7.52944 7.80358 7.59146 7.83184 7.65971C7.8601 7.72797 7.87463 7.80113 7.87461 7.875V9C7.87463 9.07387 7.8601 9.14703 7.83184 9.21529C7.80358 9.28354 7.76215 9.34556 7.70991 9.3978C7.65767 9.45003 7.59565 9.49147 7.5274 9.51973C7.45914 9.54799 7.38599 9.56252 7.31211 9.5625C6.97831 9.56247 6.65201 9.66143 6.37445 9.84686C6.0969 10.0323 5.88057 10.2959 5.75282 10.6042C5.62507 10.9126 5.59164 11.252 5.65675 11.5793C5.72186 11.9067 5.8826 12.2075 6.11863 12.4435C6.35466 12.6795 6.65538 12.8402 6.98276 12.9054C7.31015 12.9705 7.64949 12.937 7.95787 12.8093C8.26625 12.6815 8.52982 12.4652 8.71525 12.1877C8.90068 11.9101 8.99964 11.5838 8.99961 11.25V3.375Z" fill="#25F4EE"/>
<path fill-rule="evenodd" clip-rule="evenodd" d="M6.43373 12.6911C6.62533 13.0054 6.91441 13.2484 7.25694 13.3832C7.59947 13.5179 7.97665 13.537 8.33102 13.4374C8.68538 13.3379 8.9975 13.1253 9.2198 12.8319C9.4421 12.5386 9.5624 12.1806 9.56236 11.8125V3.9375C9.56234 3.86363 9.57687 3.79047 9.60513 3.72221C9.63339 3.65396 9.67483 3.59194 9.72706 3.5397C9.7793 3.48747 9.84132 3.44603 9.90958 3.41777C9.97783 3.38951 10.051 3.37498 10.1249 3.375H11.3143C11.3191 3.375 11.3236 3.375 11.3281 3.37528C11.4603 3.89807 11.7773 4.35532 12.2205 4.66256C12.4268 4.95995 12.7021 5.20288 13.0229 5.3705C13.3437 5.53813 13.7004 5.62545 14.0624 5.625V6.75C14.0624 6.82387 14.0479 6.89703 14.0196 6.96529C13.9913 7.03354 13.9499 7.09556 13.8977 7.1478C13.8454 7.20003 13.7834 7.24147 13.7152 7.26973C13.6469 7.29799 13.5737 7.31252 13.4999 7.3125C12.7098 7.31366 11.9335 7.10571 11.2499 6.70978V11.25C11.2499 11.9949 11.0386 12.7245 10.6406 13.3541C10.2426 13.9837 9.67411 14.4875 9.00123 14.807C8.32835 15.1265 7.57865 15.2486 6.83918 15.159C6.0997 15.0695 5.40079 14.7721 4.82358 14.3013C4.35284 13.724 4.05548 13.0251 3.96601 12.2857C3.87654 11.5462 3.99863 10.7966 4.31811 10.1237C4.63758 9.4509 5.14134 8.88246 5.77091 8.48442C6.40047 8.08638 7.13002 7.87506 7.87486 7.875V9C7.87488 9.07387 7.86035 9.14703 7.83209 9.21529C7.80383 9.28354 7.76239 9.34556 7.71016 9.3978C7.65792 9.45003 7.5959 9.49147 7.52765 9.51973C7.45939 9.54799 7.38623 9.56252 7.31236 9.5625C6.94433 9.56255 6.5864 9.6829 6.2931 9.90521C5.9998 10.1275 5.78721 10.4396 5.6877 10.7939C5.5882 11.1483 5.60723 11.5254 5.74192 11.8679C5.8766 12.2104 6.11954 12.4995 6.43373 12.6911Z" fill="white"/>
</g>
<defs>
<clipPath id="clip0_1420_2829">
<rect width="18" height="18" fill="white"/>
</clipPath>
</defs>
</svg>
