<svg width="12" height="12" viewBox="0 0 12 12" fill="none" xmlns="http://www.w3.org/2000/svg">
<g clip-path="url(#clip0_1222_12482)">
<path d="M11.8504 2.37246C11.4153 2.56332 10.9517 2.68983 10.4683 2.75125C10.9656 2.45436 11.3451 1.98783 11.5235 1.4255C11.0599 1.70191 10.548 1.89715 10.0025 2.00611C9.56231 1.53738 8.9349 1.24707 8.25045 1.24707C6.9225 1.24707 5.85341 2.32493 5.85341 3.6463C5.85341 3.83643 5.8695 4.01924 5.90898 4.19328C3.91487 4.09602 2.15036 3.14028 0.965003 1.68436C0.758059 2.0434 0.636672 2.45436 0.636672 2.89677C0.636672 3.72747 1.06445 4.46384 1.7021 4.89016C1.31673 4.88285 0.938678 4.77096 0.618391 4.59473C0.618391 4.60205 0.618391 4.61155 0.618391 4.62106C0.618391 5.78667 1.44982 6.75485 2.54012 6.97788C2.34487 7.03126 2.13208 7.05685 1.91124 7.05685C1.75768 7.05685 1.60265 7.04808 1.45713 7.0159C1.76792 7.9658 2.6498 8.66414 3.69842 8.68681C2.88234 9.32519 1.84616 9.70983 0.724422 9.70983C0.527716 9.70983 0.339053 9.70105 0.150391 9.67692C1.2129 10.3621 2.47211 10.7533 3.83004 10.7533C8.24387 10.7533 10.657 7.09707 10.657 3.92783C10.657 3.8218 10.6533 3.71943 10.6482 3.61778C11.1243 3.27995 11.5243 2.85801 11.8504 2.37246Z" fill="white"/>
</g>
<defs>
<clipPath id="clip0_1222_12482">
<rect width="11.7" height="11.7" fill="white" transform="translate(0.150391 0.150391)"/>
</clipPath>
</defs>
</svg>
