<svg width="30" height="30" viewBox="0 0 30 30" fill="none" xmlns="http://www.w3.org/2000/svg">
<circle cx="15" cy="15" r="15" fill="#00ACEF"/>
<g clip-path="url(#clip0_532_395)">
<path d="M21.75 10.8142C21.248 11.0344 20.713 11.1803 20.1553 11.2512C20.7291 10.9087 21.167 10.3703 21.3728 9.7215C20.8379 10.0404 20.2473 10.2657 19.6178 10.3914C19.1099 9.85059 18.386 9.51562 17.5962 9.51562C16.064 9.51562 14.8304 10.7593 14.8304 12.284C14.8304 12.5033 14.849 12.7143 14.8945 12.9151C12.5936 12.8029 10.5577 11.7001 9.18994 10.0202C8.95116 10.4345 8.81109 10.9087 8.81109 11.4191C8.81109 12.3776 9.30469 13.2273 10.0404 13.7192C9.59578 13.7108 9.15956 13.5817 8.79 13.3783C8.79 13.3867 8.79 13.3977 8.79 13.4087C8.79 14.7536 9.74934 15.8707 11.0074 16.1281C10.7821 16.1897 10.5366 16.2192 10.2817 16.2192C10.1046 16.2192 9.92569 16.2091 9.75778 16.172C10.1164 17.268 11.1339 18.0738 12.3439 18.0999C11.4023 18.8365 10.2067 19.2803 8.91234 19.2803C8.68538 19.2803 8.46769 19.2702 8.25 19.2424C9.47597 20.033 10.9289 20.4844 12.4957 20.4844C17.5886 20.4844 20.373 16.2656 20.373 12.6088C20.373 12.4865 20.3688 12.3683 20.3629 12.2511C20.9122 11.8613 21.3737 11.3744 21.75 10.8142Z" fill="#005BAB"/>
</g>
<defs>
<clipPath id="clip0_532_395">
<rect width="13.5" height="13.5" fill="white" transform="translate(8.25 8.25)"/>
</clipPath>
</defs>
</svg>
