<svg width="14" height="14" viewBox="0 0 14 14" fill="none" xmlns="http://www.w3.org/2000/svg">
<path fill-rule="evenodd" clip-rule="evenodd" d="M7 13.3C10.4794 13.3 13.3 10.4795 13.3 7C13.3 3.52061 10.4795 0.699985 7 0.699985C3.52061 0.699985 0.699985 3.52061 0.699985 7C0.699985 10.4794 3.52061 13.3 7 13.3ZM7 14C10.8659 14 14 10.8659 14 7C14 3.13398 10.8659 0 7 0C3.13398 0 0 3.13398 0 7C0 10.8659 3.13398 14 7 14Z" fill="#4091D4"/>
<path fill-rule="evenodd" clip-rule="evenodd" d="M8.81847 7.00001L5.59947 4.85403V9.14606L8.81847 7.00001ZM9.46882 6.59232C9.75979 6.7863 9.75979 7.21378 9.46882 7.40777L5.66123 9.94621C5.33561 10.1633 4.89941 9.92981 4.89941 9.53845V4.46164C4.89941 4.07028 5.33561 3.83685 5.66123 4.05395L9.46882 6.59232Z" fill="#4091D4"/>
</svg>
