<svg width="14" height="14" viewBox="0 0 14 14" fill="none" xmlns="http://www.w3.org/2000/svg">
<g clip-path="url(#clip0_1231_4127)">
<path d="M13.2322 3.87936C13.0823 3.32245 12.6432 2.88347 12.0864 2.73351C11.0691 2.45511 6.99987 2.45511 6.99987 2.45511C6.99987 2.45511 2.93075 2.45511 1.91344 2.7229C1.36734 2.87276 0.917555 3.32255 0.767691 3.87936C0.5 4.89657 0.5 7.00616 0.5 7.00616C0.5 7.00616 0.5 9.12637 0.767691 10.133C0.917654 10.6898 1.35663 11.1288 1.91354 11.2788C2.94146 11.5572 6.99997 11.5572 6.99997 11.5572C6.99997 11.5572 11.0691 11.5572 12.0864 11.2894C12.6433 11.1396 13.0823 10.7005 13.2323 10.1437C13.4999 9.12637 13.4999 7.01687 13.4999 7.01687C13.4999 7.01687 13.5107 4.89657 13.2322 3.87936Z" fill="white"/>
<path d="M5.70312 8.95547L9.08692 7.00655L5.70312 5.05762V8.95547Z" fill="#DBDBDB"/>
</g>
<defs>
<clipPath id="clip0_1231_4127">
<rect width="13" height="13" fill="white" transform="translate(0.5 0.5)"/>
</clipPath>
</defs>
</svg>
