<svg width="30" height="30" viewBox="0 0 30 30" fill="none" xmlns="http://www.w3.org/2000/svg">
<circle cx="15" cy="15" r="15" fill="#00ACEF"/>
<g clip-path="url(#clip0_532_396)">
<path d="M22.1909 11.3992C22.018 10.7566 21.5114 10.2501 20.8689 10.0771C19.6951 9.75586 14.9999 9.75586 14.9999 9.75586C14.9999 9.75586 10.3047 9.75586 9.13089 10.0648C8.50078 10.2378 7.98179 10.7568 7.80887 11.3992C7.5 12.5729 7.5 15.0071 7.5 15.0071C7.5 15.0071 7.5 17.4535 7.80887 18.6149C7.98191 19.2574 8.48842 19.764 9.13101 19.9371C10.3171 20.2583 15 20.2583 15 20.2583C15 20.2583 19.6951 20.2583 20.8689 19.9493C21.5115 19.7764 22.018 19.2698 22.1911 18.6273C22.4999 17.4535 22.4999 15.0194 22.4999 15.0194C22.4999 15.0194 22.5123 12.5729 22.1909 11.3992Z" fill="#005BAB"/>
<path d="M13.5049 17.2558L17.4093 15.0071L13.5049 12.7583V17.2558Z" fill="#00ACEF"/>
</g>
<defs>
<clipPath id="clip0_532_396">
<rect width="15" height="15" fill="white" transform="translate(7.5 7.5)"/>
</clipPath>
</defs>
</svg>
