<svg width="18" height="18" viewBox="0 0 18 18" fill="none" xmlns="http://www.w3.org/2000/svg">
<path d="M15.5455 0H2.45455C1.09894 0 0 1.09894 0 2.45455V15.5455C0 16.9011 1.09894 18 2.45455 18H15.5455C16.9011 18 18 16.9011 18 15.5455V2.45455C18 1.09894 16.9011 0 15.5455 0Z" fill="#0077B5"/>
<path d="M6.4842 4.90909C6.4842 5.21251 6.39423 5.50911 6.22566 5.76139C6.05709 6.01367 5.8175 6.2103 5.53718 6.32641C5.25686 6.44253 4.94841 6.47291 4.65082 6.41371C4.35324 6.35452 4.07989 6.20841 3.86534 5.99386C3.65079 5.77932 3.50469 5.50597 3.44549 5.20838C3.3863 4.9108 3.41668 4.60234 3.53279 4.32202C3.6489 4.0417 3.84553 3.80211 4.09781 3.63354C4.35009 3.46497 4.64669 3.375 4.95011 3.375C5.35697 3.375 5.74718 3.53663 6.03487 3.82433C6.32257 4.11202 6.4842 4.50223 6.4842 4.90909Z" fill="white"/>
<path d="M6.13659 7.4659V14.2435C6.13686 14.2935 6.12725 14.3431 6.1083 14.3893C6.08935 14.4356 6.06145 14.4777 6.02619 14.5131C5.99093 14.5486 5.94901 14.5767 5.90284 14.5959C5.85667 14.6151 5.80716 14.625 5.75716 14.625H4.14022C4.09022 14.6251 4.04069 14.6154 3.99447 14.5963C3.94825 14.5772 3.90625 14.5492 3.8709 14.5138C3.83554 14.4785 3.80752 14.4365 3.78845 14.3903C3.76938 14.3441 3.75963 14.2945 3.75977 14.2445V7.4659C3.75977 7.365 3.79985 7.26823 3.8712 7.19688C3.94255 7.12553 4.03932 7.08545 4.14022 7.08545H5.75716C5.85789 7.08572 5.95439 7.12592 6.02552 7.19724C6.09665 7.26856 6.13659 7.36518 6.13659 7.4659Z" fill="white"/>
<path d="M14.588 10.9943V14.2752C14.5882 14.3211 14.5792 14.3667 14.5617 14.4092C14.5442 14.4517 14.5184 14.4903 14.4859 14.5228C14.4534 14.5553 14.4148 14.5811 14.3723 14.5986C14.3298 14.6161 14.2842 14.6251 14.2383 14.6249H12.4996C12.4537 14.6251 12.4081 14.6161 12.3656 14.5986C12.3231 14.5811 12.2845 14.5553 12.252 14.5228C12.2195 14.4903 12.1937 14.4517 12.1762 14.4092C12.1587 14.3667 12.1497 14.3211 12.1499 14.2752V11.0955C12.1499 10.621 12.289 9.01733 10.9093 9.01733C9.84055 9.01733 9.62271 10.1147 9.57976 10.6077V14.2752C9.57976 14.367 9.54362 14.4552 9.47912 14.5207C9.41463 14.5861 9.32697 14.6236 9.2351 14.6249H7.55578C7.5099 14.6249 7.46446 14.6159 7.42209 14.5983C7.37971 14.5807 7.34121 14.5549 7.30882 14.5224C7.27642 14.4899 7.25075 14.4514 7.23329 14.4089C7.21582 14.3665 7.2069 14.321 7.20703 14.2752V7.43619C7.2069 7.39031 7.21582 7.34485 7.23329 7.30242C7.25075 7.25999 7.27642 7.22142 7.30882 7.18893C7.34121 7.15644 7.37971 7.13066 7.42209 7.11307C7.46446 7.09548 7.5099 7.08642 7.55578 7.08642H9.2351C9.32786 7.08642 9.41683 7.12327 9.48242 7.18887C9.54802 7.25446 9.58487 7.34343 9.58487 7.43619V8.02733C9.98169 7.4321 10.5698 6.9729 11.8246 6.9729C14.6044 6.9729 14.588 9.56858 14.588 10.9943Z" fill="white"/>
</svg>
